<?xml version="1.0" encoding="UTF-8" standalone="no"?><svg xmlns="http://www.w3.org/2000/svg" xmlns:xlink="http://www.w3.org/1999/xlink" clip-rule="evenodd" stroke-miterlimit="4.00" viewBox="0 0 1920 1080"><desc>SVG generated by Keynote</desc><defs></defs><g transform="matrix(1.00, 0.00, -0.00, -1.00, 0.0, 1080.0)"><path d="M 0.0 1080.0 L 1920.0 1080.0 L 1920.0 0.0 L 0.0 0.0 Z M 0.0 1080.0 " fill="#FEFFFE"></path><text xml:space="preserve" font-family="HelveticaNeue-Light" font-size="56.0" fill="#747373" transform="matrix(1.00, 0.00, -0.00, -1.00, 283.0, 578.0)">“</text><text xml:space="preserve" font-family="HelveticaNeue-Light" font-size="56.0" fill="#747373" transform="matrix(1.00, 0.00, -0.00, -1.00, 303.7, 578.0)">T</text><text xml:space="preserve" font-family="HelveticaNeue-Light" font-size="56.0" fill="#747373" transform="matrix(1.00, 0.00, -0.00, -1.00, 329.7, 578.0)">r</text><text xml:space="preserve" font-family="HelveticaNeue-Light" font-size="56.0" fill="#747373" transform="matrix(1.00, 0.00, -0.00, -1.00, 347.3, 578.0)">y</text><text xml:space="preserve" font-family="HelveticaNeue-Light" font-size="56.0" fill="#747373" transform="matrix(1.00, 0.00, -0.00, -1.00, 373.3, 578.0)"> </text><text xml:space="preserve" font-family="HelveticaNeue-Light" font-size="56.0" fill="#747373" transform="matrix(1.00, 0.00, -0.00, -1.00, 388.8, 578.0)">u</text><text xml:space="preserve" font-family="HelveticaNeue-Light" font-size="56.0" fill="#747373" transform="matrix(1.00, 0.00, -0.00, -1.00, 418.9, 578.0)">s</text><text xml:space="preserve" font-family="HelveticaNeue-Light" font-size="56.0" fill="#747373" transform="matrix(1.00, 0.00, -0.00, -1.00, 445.8, 578.0)">i</text><text xml:space="preserve" font-family="HelveticaNeue-Light" font-size="56.0" fill="#747373" transform="matrix(1.00, 0.00, -0.00, -1.00, 456.2, 578.0)">n</text><text xml:space="preserve" font-family="HelveticaNeue-Light" font-size="56.0" fill="#747373" transform="matrix(1.00, 0.00, -0.00, -1.00, 486.3, 578.0)">g</text><text xml:space="preserve" font-family="HelveticaNeue-Light" font-size="56.0" fill="#747373" transform="matrix(1.00, 0.00, -0.00, -1.00, 517.4, 578.0)"> </text><text xml:space="preserve" font-family="HelveticaNeue-Light" font-size="56.0" fill="#747373" transform="matrix(1.00, 0.00, -0.00, -1.00, 533.0, 578.0)">J</text><text xml:space="preserve" font-family="HelveticaNeue-Light" font-size="56.0" fill="#747373" transform="matrix(1.00, 0.00, -0.00, -1.00, 561.0, 578.0)">u</text><text xml:space="preserve" font-family="HelveticaNeue-Light" font-size="56.0" fill="#747373" transform="matrix(1.00, 0.00, -0.00, -1.00, 591.1, 578.0)">p</text><text xml:space="preserve" font-family="HelveticaNeue-Light" font-size="56.0" fill="#747373" transform="matrix(1.00, 0.00, -0.00, -1.00, 623.2, 578.0)">y</text><text xml:space="preserve" font-family="HelveticaNeue-Light" font-size="56.0" fill="#747373" transform="matrix(1.00, 0.00, -0.00, -1.00, 649.1, 578.0)">t</text><text xml:space="preserve" font-family="HelveticaNeue-Light" font-size="56.0" fill="#747373" transform="matrix(1.00, 0.00, -0.00, -1.00, 665.7, 578.0)">e</text><text xml:space="preserve" font-family="HelveticaNeue-Light" font-size="56.0" fill="#747373" transform="matrix(1.00, 0.00, -0.00, -1.00, 694.8, 578.0)">r</text><text xml:space="preserve" font-family="HelveticaNeue-Light" font-size="56.0" fill="#747373" transform="matrix(1.00, 0.00, -0.00, -1.00, 712.4, 578.0)">H</text><text xml:space="preserve" font-family="HelveticaNeue-Light" font-size="56.0" fill="#747373" transform="matrix(1.00, 0.00, -0.00, -1.00, 751.8, 578.0)">u</text><text xml:space="preserve" font-family="HelveticaNeue-Light" font-size="56.0" fill="#747373" transform="matrix(1.00, 0.00, -0.00, -1.00, 781.9, 578.0)">b</text><text xml:space="preserve" font-family="HelveticaNeue-Light" font-size="56.0" fill="#747373" transform="matrix(1.00, 0.00, -0.00, -1.00, 814.0, 578.0)"> </text><text xml:space="preserve" font-family="HelveticaNeue-Light" font-size="56.0" fill="#747373" transform="matrix(1.00, 0.00, -0.00, -1.00, 829.6, 578.0)">f</text><text xml:space="preserve" font-family="HelveticaNeue-Light" font-size="56.0" fill="#747373" transform="matrix(1.00, 0.00, -0.00, -1.00, 844.1, 578.0)">o</text><text xml:space="preserve" font-family="HelveticaNeue-Light" font-size="56.0" fill="#747373" transform="matrix(1.00, 0.00, -0.00, -1.00, 875.3, 578.0)">r</text><text xml:space="preserve" font-family="HelveticaNeue-Light" font-size="56.0" fill="#747373" transform="matrix(1.00, 0.00, -0.00, -1.00, 892.9, 578.0)"> </text><text xml:space="preserve" font-family="HelveticaNeue-Light" font-size="56.0" fill="#747373" transform="matrix(1.00, 0.00, -0.00, -1.00, 908.5, 578.0)">a</text><text xml:space="preserve" font-family="HelveticaNeue-Light" font-size="56.0" fill="#747373" transform="matrix(1.00, 0.00, -0.00, -1.00, 937.5, 578.0)"> </text><text xml:space="preserve" font-family="HelveticaNeue-Light" font-size="56.0" fill="#747373" transform="matrix(1.00, 0.00, -0.00, -1.00, 953.1, 578.0)">f</text><text xml:space="preserve" font-family="HelveticaNeue-Light" font-size="56.0" fill="#747373" transform="matrix(1.00, 0.00, -0.00, -1.00, 967.6, 578.0)">u</text><text xml:space="preserve" font-family="HelveticaNeue-Light" font-size="56.0" fill="#747373" transform="matrix(1.00, 0.00, -0.00, -1.00, 997.7, 578.0)">t</text><text xml:space="preserve" font-family="HelveticaNeue-Light" font-size="56.0" fill="#747373" transform="matrix(1.00, 0.00, -0.00, -1.00, 1014.2, 578.0)">u</text><text xml:space="preserve" font-family="HelveticaNeue-Light" font-size="56.0" fill="#747373" transform="matrix(1.00, 0.00, -0.00, -1.00, 1044.3, 578.0)">r</text><text xml:space="preserve" font-family="HelveticaNeue-Light" font-size="56.0" fill="#747373" transform="matrix(1.00, 0.00, -0.00, -1.00, 1061.0, 578.0)">e</text><text xml:space="preserve" font-family="HelveticaNeue-Light" font-size="56.0" fill="#747373" transform="matrix(1.00, 0.00, -0.00, -1.00, 1090.0, 578.0)"> </text><text xml:space="preserve" font-family="HelveticaNeue-Light" font-size="56.0" fill="#747373" transform="matrix(1.00, 0.00, -0.00, -1.00, 1105.6, 578.0)">u</text><text xml:space="preserve" font-family="HelveticaNeue-Light" font-size="56.0" fill="#747373" transform="matrix(1.00, 0.00, -0.00, -1.00, 1135.7, 578.0)">s</text><text xml:space="preserve" font-family="HelveticaNeue-Light" font-size="56.0" fill="#747373" transform="matrix(1.00, 0.00, -0.00, -1.00, 1162.6, 578.0)">e</text><text xml:space="preserve" font-family="HelveticaNeue-Light" font-size="56.0" fill="#747373" transform="matrix(1.00, 0.00, -0.00, -1.00, 1191.7, 578.0)">r</text><text xml:space="preserve" font-family="HelveticaNeue-Light" font-size="56.0" fill="#747373" transform="matrix(1.00, 0.00, -0.00, -1.00, 1209.3, 578.0)"> </text><text xml:space="preserve" font-family="HelveticaNeue-Light" font-size="56.0" fill="#747373" transform="matrix(1.00, 0.00, -0.00, -1.00, 1224.9, 578.0)">g</text><text xml:space="preserve" font-family="HelveticaNeue-Light" font-size="56.0" fill="#747373" transform="matrix(1.00, 0.00, -0.00, -1.00, 1256.0, 578.0)">r</text><text xml:space="preserve" font-family="HelveticaNeue-Light" font-size="56.0" fill="#747373" transform="matrix(1.00, 0.00, -0.00, -1.00, 1272.6, 578.0)">o</text><text xml:space="preserve" font-family="HelveticaNeue-Light" font-size="56.0" fill="#747373" transform="matrix(1.00, 0.00, -0.00, -1.00, 1303.8, 578.0)">u</text><text xml:space="preserve" font-family="HelveticaNeue-Light" font-size="56.0" fill="#747373" transform="matrix(1.00, 0.00, -0.00, -1.00, 1333.8, 578.0)">p</text><text xml:space="preserve" font-family="HelveticaNeue-Light" font-size="56.0" fill="#747373" transform="matrix(1.00, 0.00, -0.00, -1.00, 1366.0, 578.0)"> </text><text xml:space="preserve" font-family="HelveticaNeue-Light" font-size="56.0" fill="#747373" transform="matrix(1.00, 0.00, -0.00, -1.00, 1381.6, 578.0)">m</text><text xml:space="preserve" font-family="HelveticaNeue-Light" font-size="56.0" fill="#747373" transform="matrix(1.00, 0.00, -0.00, -1.00, 1428.2, 578.0)">e</text><text xml:space="preserve" font-family="HelveticaNeue-Light" font-size="56.0" fill="#747373" transform="matrix(1.00, 0.00, -0.00, -1.00, 1457.3, 578.0)">e</text><text xml:space="preserve" font-family="HelveticaNeue-Light" font-size="56.0" fill="#747373" transform="matrix(1.00, 0.00, -0.00, -1.00, 1486.3, 578.0)">t</text><text xml:space="preserve" font-family="HelveticaNeue-Light" font-size="56.0" fill="#747373" transform="matrix(1.00, 0.00, -0.00, -1.00, 1502.9, 578.0)">i</text><text xml:space="preserve" font-family="HelveticaNeue-Light" font-size="56.0" fill="#747373" transform="matrix(1.00, 0.00, -0.00, -1.00, 1513.3, 578.0)">n</text><text xml:space="preserve" font-family="HelveticaNeue-Light" font-size="56.0" fill="#747373" transform="matrix(1.00, 0.00, -0.00, -1.00, 1543.3, 578.0)">g</text><text xml:space="preserve" font-family="HelveticaNeue-Light" font-size="56.0" fill="#747373" transform="matrix(1.00, 0.00, -0.00, -1.00, 1574.5, 578.0)"> </text><text xml:space="preserve" font-family="HelveticaNeue-Light" font-size="56.0" fill="#747373" transform="matrix(1.00, 0.00, -0.00, -1.00, 1590.0, 578.0)">o</text><text xml:space="preserve" font-family="HelveticaNeue-Light" font-size="56.0" fill="#747373" transform="matrix(1.00, 0.00, -0.00, -1.00, 1621.2, 578.0)">r</text><text xml:space="preserve" font-family="HelveticaNeue-Light" font-size="56.0" fill="#747373" transform="matrix(1.00, 0.00, -0.00, -1.00, 1638.8, 578.0)"> </text><text xml:space="preserve" font-family="HelveticaNeue-Light" font-size="56.0" fill="#747373" transform="matrix(1.00, 0.00, -0.00, -1.00, 823.0, 510.0)">w</text><text xml:space="preserve" font-family="HelveticaNeue-Light" font-size="56.0" fill="#747373" transform="matrix(1.00, 0.00, -0.00, -1.00, 864.5, 510.0)">o</text><text xml:space="preserve" font-family="HelveticaNeue-Light" font-size="56.0" fill="#747373" transform="matrix(1.00, 0.00, -0.00, -1.00, 895.6, 510.0)">r</text><text xml:space="preserve" font-family="HelveticaNeue-Light" font-size="56.0" fill="#747373" transform="matrix(1.00, 0.00, -0.00, -1.00, 913.3, 510.0)">k</text><text xml:space="preserve" font-family="HelveticaNeue-Light" font-size="56.0" fill="#747373" transform="matrix(1.00, 0.00, -0.00, -1.00, 941.3, 510.0)">s</text><text xml:space="preserve" font-family="HelveticaNeue-Light" font-size="56.0" fill="#747373" transform="matrix(1.00, 0.00, -0.00, -1.00, 968.2, 510.0)">h</text><text xml:space="preserve" font-family="HelveticaNeue-Light" font-size="56.0" fill="#747373" transform="matrix(1.00, 0.00, -0.00, -1.00, 998.3, 510.0)">o</text><text xml:space="preserve" font-family="HelveticaNeue-Light" font-size="56.0" fill="#747373" transform="matrix(1.00, 0.00, -0.00, -1.00, 1029.4, 510.0)">p</text><text xml:space="preserve" font-family="HelveticaNeue-Light" font-size="56.0" fill="#747373" transform="matrix(1.00, 0.00, -0.00, -1.00, 1061.6, 510.0)">.</text><text xml:space="preserve" font-family="HelveticaNeue-Light" font-size="56.0" fill="#747373" transform="matrix(1.00, 0.00, -0.00, -1.00, 1077.1, 510.0)">”</text><text xml:space="preserve" font-family="HelveticaNeue-Light" font-size="50.0" fill="#000000" transform="matrix(1.00, 0.00, -0.00, -1.00, 842.0, 313.0)">T</text><text xml:space="preserve" font-family="HelveticaNeue-Light" font-size="50.0" fill="#000000" transform="matrix(1.00, 0.00, -0.00, -1.00, 869.8, 313.0)">h</text><text xml:space="preserve" font-family="HelveticaNeue-Light" font-size="50.0" fill="#000000" transform="matrix(1.00, 0.00, -0.00, -1.00, 896.6, 313.0)">a</text><text xml:space="preserve" font-family="HelveticaNeue-Light" font-size="50.0" fill="#000000" transform="matrix(1.00, 0.00, -0.00, -1.00, 922.6, 313.0)">n</text><text xml:space="preserve" font-family="HelveticaNeue-Light" font-size="50.0" fill="#000000" transform="matrix(1.00, 0.00, -0.00, -1.00, 949.5, 313.0)">k</text><text xml:space="preserve" font-family="HelveticaNeue-Light" font-size="50.0" fill="#000000" transform="matrix(1.00, 0.00, -0.00, -1.00, 974.5, 313.0)"> </text><text xml:space="preserve" font-family="HelveticaNeue-Light" font-size="50.0" fill="#000000" transform="matrix(1.00, 0.00, -0.00, -1.00, 988.4, 313.0)">y</text><text xml:space="preserve" font-family="HelveticaNeue-Light" font-size="50.0" fill="#000000" transform="matrix(1.00, 0.00, -0.00, -1.00, 1011.5, 313.0)">o</text><text xml:space="preserve" font-family="HelveticaNeue-Light" font-size="50.0" fill="#000000" transform="matrix(1.00, 0.00, -0.00, -1.00, 1039.3, 313.0)">u</text><text xml:space="preserve" font-family="HelveticaNeue-Light" font-size="50.0" fill="#000000" transform="matrix(1.00, 0.00, -0.00, -1.00, 1066.2, 313.0)">!</text><text xml:space="preserve" font-family="HelveticaNeue-Light" font-size="50.0" fill="#000000" transform="matrix(1.00, 0.00, -0.00, -1.00, 1078.2, 313.0)"> </text><text xml:space="preserve" font-family="HelveticaNeue-Light" font-size="50.0" fill="#000000" transform="matrix(1.00, 0.00, -0.00, -1.00, 515.0, 193.0)">A</text><text xml:space="preserve" font-family="HelveticaNeue-Light" font-size="50.0" fill="#000000" transform="matrix(1.00, 0.00, -0.00, -1.00, 546.5, 193.0)"> </text><text xml:space="preserve" font-family="HelveticaNeue-Light" font-size="50.0" fill="#000000" transform="matrix(1.00, 0.00, -0.00, -1.00, 560.4, 193.0)">s</text><text xml:space="preserve" font-family="HelveticaNeue-Light" font-size="50.0" fill="#000000" transform="matrix(1.00, 0.00, -0.00, -1.00, 584.5, 193.0)">p</text><text xml:space="preserve" font-family="HelveticaNeue-Light" font-size="50.0" fill="#000000" transform="matrix(1.00, 0.00, -0.00, -1.00, 613.1, 193.0)">e</text><text xml:space="preserve" font-family="HelveticaNeue-Light" font-size="50.0" fill="#000000" transform="matrix(1.00, 0.00, -0.00, -1.00, 639.1, 193.0)">c</text><text xml:space="preserve" font-family="HelveticaNeue-Light" font-size="50.0" fill="#000000" transform="matrix(1.00, 0.00, -0.00, -1.00, 665.0, 193.0)">i</text><text xml:space="preserve" font-family="HelveticaNeue-Light" font-size="50.0" fill="#000000" transform="matrix(1.00, 0.00, -0.00, -1.00, 674.3, 193.0)">a</text><text xml:space="preserve" font-family="HelveticaNeue-Light" font-size="50.0" fill="#000000" transform="matrix(1.00, 0.00, -0.00, -1.00, 700.2, 193.0)">l</text><text xml:space="preserve" font-family="HelveticaNeue-Light" font-size="50.0" fill="#000000" transform="matrix(1.00, 0.00, -0.00, -1.00, 709.5, 193.0)"> </text><text xml:space="preserve" font-family="HelveticaNeue-Light" font-size="50.0" fill="#000000" transform="matrix(1.00, 0.00, -0.00, -1.00, 723.4, 193.0)">t</text><text xml:space="preserve" font-family="HelveticaNeue-Light" font-size="50.0" fill="#000000" transform="matrix(1.00, 0.00, -0.00, -1.00, 738.2, 193.0)">h</text><text xml:space="preserve" font-family="HelveticaNeue-Light" font-size="50.0" fill="#000000" transform="matrix(1.00, 0.00, -0.00, -1.00, 765.0, 193.0)">a</text><text xml:space="preserve" font-family="HelveticaNeue-Light" font-size="50.0" fill="#000000" transform="matrix(1.00, 0.00, -0.00, -1.00, 791.0, 193.0)">n</text><text xml:space="preserve" font-family="HelveticaNeue-Light" font-size="50.0" fill="#000000" transform="matrix(1.00, 0.00, -0.00, -1.00, 817.9, 193.0)">k</text><text xml:space="preserve" font-family="HelveticaNeue-Light" font-size="50.0" fill="#000000" transform="matrix(1.00, 0.00, -0.00, -1.00, 842.9, 193.0)">s</text><text xml:space="preserve" font-family="HelveticaNeue-Light" font-size="50.0" fill="#000000" transform="matrix(1.00, 0.00, -0.00, -1.00, 866.9, 193.0)"> </text><text xml:space="preserve" font-family="HelveticaNeue-Light" font-size="50.0" fill="#000000" transform="matrix(1.00, 0.00, -0.00, -1.00, 880.8, 193.0)">t</text><text xml:space="preserve" font-family="HelveticaNeue-Light" font-size="50.0" fill="#000000" transform="matrix(1.00, 0.00, -0.00, -1.00, 895.6, 193.0)">o</text><text xml:space="preserve" font-family="HelveticaNeue-Light" font-size="50.0" fill="#000000" transform="matrix(1.00, 0.00, -0.00, -1.00, 923.4, 193.0)"> </text><text xml:space="preserve" font-family="HelveticaNeue-Light" font-size="50.0" fill="#000000" transform="matrix(1.00, 0.00, -0.00, -1.00, 937.3, 193.0)">t</text><text xml:space="preserve" font-family="HelveticaNeue-Light" font-size="50.0" fill="#000000" transform="matrix(1.00, 0.00, -0.00, -1.00, 952.1, 193.0)">h</text><text xml:space="preserve" font-family="HelveticaNeue-Light" font-size="50.0" fill="#000000" transform="matrix(1.00, 0.00, -0.00, -1.00, 979.0, 193.0)">e</text><text xml:space="preserve" font-family="HelveticaNeue-Light" font-size="50.0" fill="#000000" transform="matrix(1.00, 0.00, -0.00, -1.00, 1004.9, 193.0)"> </text><text xml:space="preserve" font-family="HelveticaNeue-Light" font-size="50.0" fill="#000000" transform="matrix(1.00, 0.00, -0.00, -1.00, 1018.8, 193.0)">m</text><text xml:space="preserve" font-family="HelveticaNeue-Light" font-size="50.0" fill="#000000" transform="matrix(1.00, 0.00, -0.00, -1.00, 1060.5, 193.0)">e</text><text xml:space="preserve" font-family="HelveticaNeue-Light" font-size="50.0" fill="#000000" transform="matrix(1.00, 0.00, -0.00, -1.00, 1086.4, 193.0)">e</text><text xml:space="preserve" font-family="HelveticaNeue-Light" font-size="50.0" fill="#000000" transform="matrix(1.00, 0.00, -0.00, -1.00, 1112.4, 193.0)">t</text><text xml:space="preserve" font-family="HelveticaNeue-Light" font-size="50.0" fill="#000000" transform="matrix(1.00, 0.00, -0.00, -1.00, 1127.2, 193.0)">i</text><text xml:space="preserve" font-family="HelveticaNeue-Light" font-size="50.0" fill="#000000" transform="matrix(1.00, 0.00, -0.00, -1.00, 1136.4, 193.0)">n</text><text xml:space="preserve" font-family="HelveticaNeue-Light" font-size="50.0" fill="#000000" transform="matrix(1.00, 0.00, -0.00, -1.00, 1163.2, 193.0)">g</text><text xml:space="preserve" font-family="HelveticaNeue-Light" font-size="50.0" fill="#000000" transform="matrix(1.00, 0.00, -0.00, -1.00, 1191.1, 193.0)"> </text><text xml:space="preserve" font-family="HelveticaNeue-Light" font-size="50.0" fill="#000000" transform="matrix(1.00, 0.00, -0.00, -1.00, 1205.0, 193.0)">s</text><text xml:space="preserve" font-family="HelveticaNeue-Light" font-size="50.0" fill="#000000" transform="matrix(1.00, 0.00, -0.00, -1.00, 1229.0, 193.0)">p</text><text xml:space="preserve" font-family="HelveticaNeue-Light" font-size="50.0" fill="#000000" transform="matrix(1.00, 0.00, -0.00, -1.00, 1257.7, 193.0)">o</text><text xml:space="preserve" font-family="HelveticaNeue-Light" font-size="50.0" fill="#000000" transform="matrix(1.00, 0.00, -0.00, -1.00, 1285.5, 193.0)">n</text><text xml:space="preserve" font-family="HelveticaNeue-Light" font-size="50.0" fill="#000000" transform="matrix(1.00, 0.00, -0.00, -1.00, 1312.3, 193.0)">s</text><text xml:space="preserve" font-family="HelveticaNeue-Light" font-size="50.0" fill="#000000" transform="matrix(1.00, 0.00, -0.00, -1.00, 1336.4, 193.0)">o</text><text xml:space="preserve" font-family="HelveticaNeue-Light" font-size="50.0" fill="#000000" transform="matrix(1.00, 0.00, -0.00, -1.00, 1364.2, 193.0)">r</text><text xml:space="preserve" font-family="HelveticaNeue-Light" font-size="50.0" fill="#000000" transform="matrix(1.00, 0.00, -0.00, -1.00, 1379.9, 193.0)">s</text><text xml:space="preserve" font-family="HelveticaNeue-Light" font-size="50.0" fill="#000000" transform="matrix(1.00, 0.00, -0.00, -1.00, 1404.0, 193.0)"> </text><text xml:space="preserve" font-family="HelveticaNeue-Light" font-size="50.0" fill="#000000" transform="matrix(1.00, 0.00, -0.00, -1.00, 556.0, 133.0)">f</text><text xml:space="preserve" font-family="HelveticaNeue-Light" font-size="50.0" fill="#000000" transform="matrix(1.00, 0.00, -0.00, -1.00, 569.0, 133.0)">o</text><text xml:space="preserve" font-family="HelveticaNeue-Light" font-size="50.0" fill="#000000" transform="matrix(1.00, 0.00, -0.00, -1.00, 596.8, 133.0)">r</text><text xml:space="preserve" font-family="HelveticaNeue-Light" font-size="50.0" fill="#000000" transform="matrix(1.00, 0.00, -0.00, -1.00, 612.5, 133.0)"> </text><text xml:space="preserve" font-family="HelveticaNeue-Light" font-size="50.0" fill="#000000" transform="matrix(1.00, 0.00, -0.00, -1.00, 626.4, 133.0)">s</text><text xml:space="preserve" font-family="HelveticaNeue-Light" font-size="50.0" fill="#000000" transform="matrix(1.00, 0.00, -0.00, -1.00, 650.5, 133.0)">u</text><text xml:space="preserve" font-family="HelveticaNeue-Light" font-size="50.0" fill="#000000" transform="matrix(1.00, 0.00, -0.00, -1.00, 677.3, 133.0)">p</text><text xml:space="preserve" font-family="HelveticaNeue-Light" font-size="50.0" fill="#000000" transform="matrix(1.00, 0.00, -0.00, -1.00, 706.0, 133.0)">p</text><text xml:space="preserve" font-family="HelveticaNeue-Light" font-size="50.0" fill="#000000" transform="matrix(1.00, 0.00, -0.00, -1.00, 734.7, 133.0)">o</text><text xml:space="preserve" font-family="HelveticaNeue-Light" font-size="50.0" fill="#000000" transform="matrix(1.00, 0.00, -0.00, -1.00, 762.5, 133.0)">r</text><text xml:space="preserve" font-family="HelveticaNeue-Light" font-size="50.0" fill="#000000" transform="matrix(1.00, 0.00, -0.00, -1.00, 778.2, 133.0)">t</text><text xml:space="preserve" font-family="HelveticaNeue-Light" font-size="50.0" fill="#000000" transform="matrix(1.00, 0.00, -0.00, -1.00, 793.0, 133.0)">i</text><text xml:space="preserve" font-family="HelveticaNeue-Light" font-size="50.0" fill="#000000" transform="matrix(1.00, 0.00, -0.00, -1.00, 802.3, 133.0)">n</text><text xml:space="preserve" font-family="HelveticaNeue-Light" font-size="50.0" fill="#000000" transform="matrix(1.00, 0.00, -0.00, -1.00, 829.2, 133.0)">g</text><text xml:space="preserve" font-family="HelveticaNeue-Light" font-size="50.0" fill="#000000" transform="matrix(1.00, 0.00, -0.00, -1.00, 857.0, 133.0)"> </text><text xml:space="preserve" font-family="HelveticaNeue-Light" font-size="50.0" fill="#000000" transform="matrix(1.00, 0.00, -0.00, -1.00, 870.9, 133.0)">t</text><text xml:space="preserve" font-family="HelveticaNeue-Light" font-size="50.0" fill="#000000" transform="matrix(1.00, 0.00, -0.00, -1.00, 885.7, 133.0)">h</text><text xml:space="preserve" font-family="HelveticaNeue-Light" font-size="50.0" fill="#000000" transform="matrix(1.00, 0.00, -0.00, -1.00, 912.5, 133.0)">e</text><text xml:space="preserve" font-family="HelveticaNeue-Light" font-size="50.0" fill="#000000" transform="matrix(1.00, 0.00, -0.00, -1.00, 938.5, 133.0)"> </text><text xml:space="preserve" font-family="HelveticaNeue-Light" font-size="50.0" fill="#000000" transform="matrix(1.00, 0.00, -0.00, -1.00, 952.4, 133.0)">P</text><text xml:space="preserve" font-family="HelveticaNeue-Light" font-size="50.0" fill="#000000" transform="matrix(1.00, 0.00, -0.00, -1.00, 983.9, 133.0)">y</text><text xml:space="preserve" font-family="HelveticaNeue-Light" font-size="50.0" fill="#000000" transform="matrix(1.00, 0.00, -0.00, -1.00, 1007.0, 133.0)">t</text><text xml:space="preserve" font-family="HelveticaNeue-Light" font-size="50.0" fill="#000000" transform="matrix(1.00, 0.00, -0.00, -1.00, 1021.8, 133.0)">h</text><text xml:space="preserve" font-family="HelveticaNeue-Light" font-size="50.0" fill="#000000" transform="matrix(1.00, 0.00, -0.00, -1.00, 1048.7, 133.0)">o</text><text xml:space="preserve" font-family="HelveticaNeue-Light" font-size="50.0" fill="#000000" transform="matrix(1.00, 0.00, -0.00, -1.00, 1076.5, 133.0)">n</text><text xml:space="preserve" font-family="HelveticaNeue-Light" font-size="50.0" fill="#000000" transform="matrix(1.00, 0.00, -0.00, -1.00, 1103.3, 133.0)"> </text><text xml:space="preserve" font-family="HelveticaNeue-Light" font-size="50.0" fill="#000000" transform="matrix(1.00, 0.00, -0.00, -1.00, 1117.2, 133.0)">c</text><text xml:space="preserve" font-family="HelveticaNeue-Light" font-size="50.0" fill="#000000" transform="matrix(1.00, 0.00, -0.00, -1.00, 1143.2, 133.0)">o</text><text xml:space="preserve" font-family="HelveticaNeue-Light" font-size="50.0" fill="#000000" transform="matrix(1.00, 0.00, -0.00, -1.00, 1171.0, 133.0)">m</text><text xml:space="preserve" font-family="HelveticaNeue-Light" font-size="50.0" fill="#000000" transform="matrix(1.00, 0.00, -0.00, -1.00, 1212.6, 133.0)">m</text><text xml:space="preserve" font-family="HelveticaNeue-Light" font-size="50.0" fill="#000000" transform="matrix(1.00, 0.00, -0.00, -1.00, 1254.2, 133.0)">u</text><text xml:space="preserve" font-family="HelveticaNeue-Light" font-size="50.0" fill="#000000" transform="matrix(1.00, 0.00, -0.00, -1.00, 1281.1, 133.0)">n</text><text xml:space="preserve" font-family="HelveticaNeue-Light" font-size="50.0" fill="#000000" transform="matrix(1.00, 0.00, -0.00, -1.00, 1308.0, 133.0)">i</text><text xml:space="preserve" font-family="HelveticaNeue-Light" font-size="50.0" fill="#000000" transform="matrix(1.00, 0.00, -0.00, -1.00, 1317.2, 133.0)">t</text><text xml:space="preserve" font-family="HelveticaNeue-Light" font-size="50.0" fill="#000000" transform="matrix(1.00, 0.00, -0.00, -1.00, 1332.0, 133.0)">y</text><text xml:space="preserve" font-family="HelveticaNeue-Light" font-size="50.0" fill="#000000" transform="matrix(1.00, 0.00, -0.00, -1.00, 1350.5, 133.0)">.</text></g></svg>