<?xml version="1.0" encoding="UTF-8" standalone="no"?><svg xmlns="http://www.w3.org/2000/svg" xmlns:xlink="http://www.w3.org/1999/xlink" clip-rule="evenodd" stroke-miterlimit="4.00" viewBox="0 0 1920 1080"><desc>SVG generated by Keynote</desc><defs></defs><g transform="matrix(1.00, 0.00, -0.00, -1.00, 0.0, 1080.0)"><path d="M 0.0 1080.0 L 1920.0 1080.0 L 1920.0 0.0 L 0.0 0.0 Z M 0.0 1080.0 " fill="#FEFFFE"></path><path d="M 0.0 0.0 L 787.6 0.0 " fill="none" stroke="#9A9A9A" stroke-width="1.00" transform="matrix(1.00, 0.00, 0.00, -1.00, 84.0, 541.0)"></path><g><clipPath id="clip-37"><path d="M 960.0 1080.0 L 1902.0 1080.0 L 1902.0 20.0 L 960.0 20.0 Z M 960.0 1080.0 "></path></clipPath><g clip-path="url(#clip-37)"><image xlink:href="../../77254621-8B26-44A6-ABBA-D99D26236ECB/assets/F585C7C76E61370C719FCD7F99ED8B50.png" width="800.00" height="600.00" transform="matrix(1.77, 0.00, -0.00, -1.77, 724.0, 1080.0)"></image></g></g><text xml:space="preserve" font-family="HelveticaNeue-Light" font-size="58.0" fill="#929292" transform="matrix(1.00, 0.00, -0.00, -1.00, 88.0, 796.0)">A</text><text xml:space="preserve" font-family="HelveticaNeue-Light" font-size="58.0" fill="#929292" transform="matrix(1.00, 0.00, -0.00, -1.00, 124.5, 796.0)"> </text><text xml:space="preserve" font-family="HelveticaNeue-Light" font-size="58.0" fill="#929292" transform="matrix(1.00, 0.00, -0.00, -1.00, 140.7, 796.0)">d</text><text xml:space="preserve" font-family="HelveticaNeue-Light" font-size="58.0" fill="#929292" transform="matrix(1.00, 0.00, -0.00, -1.00, 174.0, 796.0)">a</text><text xml:space="preserve" font-family="HelveticaNeue-Light" font-size="58.0" fill="#929292" transform="matrix(1.00, 0.00, -0.00, -1.00, 204.1, 796.0)">t</text><text xml:space="preserve" font-family="HelveticaNeue-Light" font-size="58.0" fill="#929292" transform="matrix(1.00, 0.00, -0.00, -1.00, 221.2, 796.0)">a</text><text xml:space="preserve" font-family="HelveticaNeue-Light" font-size="58.0" fill="#929292" transform="matrix(1.00, 0.00, -0.00, -1.00, 251.3, 796.0)"> </text><text xml:space="preserve" font-family="HelveticaNeue-Light" font-size="58.0" fill="#929292" transform="matrix(1.00, 0.00, -0.00, -1.00, 267.5, 796.0)">s</text><text xml:space="preserve" font-family="HelveticaNeue-Light" font-size="58.0" fill="#929292" transform="matrix(1.00, 0.00, -0.00, -1.00, 295.4, 796.0)">c</text><text xml:space="preserve" font-family="HelveticaNeue-Light" font-size="58.0" fill="#929292" transform="matrix(1.00, 0.00, -0.00, -1.00, 325.5, 796.0)">i</text><text xml:space="preserve" font-family="HelveticaNeue-Light" font-size="58.0" fill="#929292" transform="matrix(1.00, 0.00, -0.00, -1.00, 336.2, 796.0)">e</text><text xml:space="preserve" font-family="HelveticaNeue-Light" font-size="58.0" fill="#929292" transform="matrix(1.00, 0.00, -0.00, -1.00, 366.3, 796.0)">n</text><text xml:space="preserve" font-family="HelveticaNeue-Light" font-size="58.0" fill="#929292" transform="matrix(1.00, 0.00, -0.00, -1.00, 397.4, 796.0)">t</text><text xml:space="preserve" font-family="HelveticaNeue-Light" font-size="58.0" fill="#929292" transform="matrix(1.00, 0.00, -0.00, -1.00, 414.6, 796.0)">i</text><text xml:space="preserve" font-family="HelveticaNeue-Light" font-size="58.0" fill="#929292" transform="matrix(1.00, 0.00, -0.00, -1.00, 425.3, 796.0)">s</text><text xml:space="preserve" font-family="HelveticaNeue-Light" font-size="58.0" fill="#929292" transform="matrix(1.00, 0.00, -0.00, -1.00, 453.2, 796.0)">t</text><text xml:space="preserve" font-family="HelveticaNeue-Light" font-size="58.0" fill="#929292" transform="matrix(1.00, 0.00, -0.00, -1.00, 470.4, 796.0)">,</text><text xml:space="preserve" font-family="HelveticaNeue-Light" font-size="58.0" fill="#929292" transform="matrix(1.00, 0.00, -0.00, -1.00, 486.5, 796.0)"> </text><text xml:space="preserve" font-family="HelveticaNeue-Light" font-size="58.0" fill="#929292" transform="matrix(1.00, 0.00, -0.00, -1.00, 502.6, 796.0)">a</text><text xml:space="preserve" font-family="HelveticaNeue-Light" font-size="58.0" fill="#929292" transform="matrix(1.00, 0.00, -0.00, -1.00, 532.7, 796.0)"> </text><text xml:space="preserve" font-family="HelveticaNeue-Light" font-size="58.0" fill="#929292" transform="matrix(1.00, 0.00, -0.00, -1.00, 548.9, 796.0)">d</text><text xml:space="preserve" font-family="HelveticaNeue-Light" font-size="58.0" fill="#929292" transform="matrix(1.00, 0.00, -0.00, -1.00, 582.2, 796.0)">e</text><text xml:space="preserve" font-family="HelveticaNeue-Light" font-size="58.0" fill="#929292" transform="matrix(1.00, 0.00, -0.00, -1.00, 612.3, 796.0)">v</text><text xml:space="preserve" font-family="HelveticaNeue-Light" font-size="58.0" fill="#929292" transform="matrix(1.00, 0.00, -0.00, -1.00, 639.1, 796.0)">e</text><text xml:space="preserve" font-family="HelveticaNeue-Light" font-size="58.0" fill="#929292" transform="matrix(1.00, 0.00, -0.00, -1.00, 669.2, 796.0)">l</text><text xml:space="preserve" font-family="HelveticaNeue-Light" font-size="58.0" fill="#929292" transform="matrix(1.00, 0.00, -0.00, -1.00, 679.9, 796.0)">o</text><text xml:space="preserve" font-family="HelveticaNeue-Light" font-size="58.0" fill="#929292" transform="matrix(1.00, 0.00, -0.00, -1.00, 712.2, 796.0)">p</text><text xml:space="preserve" font-family="HelveticaNeue-Light" font-size="58.0" fill="#929292" transform="matrix(1.00, 0.00, -0.00, -1.00, 745.5, 796.0)">e</text><text xml:space="preserve" font-family="HelveticaNeue-Light" font-size="58.0" fill="#929292" transform="matrix(1.00, 0.00, -0.00, -1.00, 775.6, 796.0)">r</text><text xml:space="preserve" font-family="HelveticaNeue-Light" font-size="58.0" fill="#929292" transform="matrix(1.00, 0.00, -0.00, -1.00, 788.5, 796.0)">,</text><text xml:space="preserve" font-family="HelveticaNeue-Light" font-size="58.0" fill="#929292" transform="matrix(1.00, 0.00, -0.00, -1.00, 804.6, 796.0)"> </text><text xml:space="preserve" font-family="HelveticaNeue-Light" font-size="58.0" fill="#929292" transform="matrix(1.00, 0.00, -0.00, -1.00, 88.0, 726.0)">a</text><text xml:space="preserve" font-family="HelveticaNeue-Light" font-size="58.0" fill="#929292" transform="matrix(1.00, 0.00, -0.00, -1.00, 118.1, 726.0)">n</text><text xml:space="preserve" font-family="HelveticaNeue-Light" font-size="58.0" fill="#929292" transform="matrix(1.00, 0.00, -0.00, -1.00, 149.2, 726.0)">d</text><text xml:space="preserve" font-family="HelveticaNeue-Light" font-size="58.0" fill="#929292" transform="matrix(1.00, 0.00, -0.00, -1.00, 182.5, 726.0)"> </text><text xml:space="preserve" font-family="HelveticaNeue-Light" font-size="58.0" fill="#929292" transform="matrix(1.00, 0.00, -0.00, -1.00, 198.7, 726.0)">a</text><text xml:space="preserve" font-family="HelveticaNeue-Light" font-size="58.0" fill="#929292" transform="matrix(1.00, 0.00, -0.00, -1.00, 228.8, 726.0)"> </text><text xml:space="preserve" font-family="HelveticaNeue-Light" font-size="58.0" fill="#929292" transform="matrix(1.00, 0.00, -0.00, -1.00, 244.9, 726.0)">d</text><text xml:space="preserve" font-family="HelveticaNeue-Light" font-size="58.0" fill="#929292" transform="matrix(1.00, 0.00, -0.00, -1.00, 278.2, 726.0)">e</text><text xml:space="preserve" font-family="HelveticaNeue-Light" font-size="58.0" fill="#929292" transform="matrix(1.00, 0.00, -0.00, -1.00, 308.3, 726.0)">v</text><text xml:space="preserve" font-family="HelveticaNeue-Light" font-size="58.0" fill="#929292" transform="matrix(1.00, 0.00, -0.00, -1.00, 335.1, 726.0)">o</text><text xml:space="preserve" font-family="HelveticaNeue-Light" font-size="58.0" fill="#929292" transform="matrix(1.00, 0.00, -0.00, -1.00, 367.4, 726.0)">p</text><text xml:space="preserve" font-family="HelveticaNeue-Light" font-size="58.0" fill="#929292" transform="matrix(1.00, 0.00, -0.00, -1.00, 400.7, 726.0)">s</text><text xml:space="preserve" font-family="HelveticaNeue-Light" font-size="58.0" fill="#929292" transform="matrix(1.00, 0.00, -0.00, -1.00, 428.6, 726.0)"> </text><text xml:space="preserve" font-family="HelveticaNeue-Light" font-size="58.0" fill="#929292" transform="matrix(1.00, 0.00, -0.00, -1.00, 444.7, 726.0)">p</text><text xml:space="preserve" font-family="HelveticaNeue-Light" font-size="58.0" fill="#929292" transform="matrix(1.00, 0.00, -0.00, -1.00, 478.0, 726.0)">r</text><text xml:space="preserve" font-family="HelveticaNeue-Light" font-size="58.0" fill="#929292" transform="matrix(1.00, 0.00, -0.00, -1.00, 495.2, 726.0)">o</text><text xml:space="preserve" font-family="HelveticaNeue-Light" font-size="58.0" fill="#929292" transform="matrix(1.00, 0.00, -0.00, -1.00, 527.5, 726.0)">f</text><text xml:space="preserve" font-family="HelveticaNeue-Light" font-size="58.0" fill="#929292" transform="matrix(1.00, 0.00, -0.00, -1.00, 542.5, 726.0)">e</text><text xml:space="preserve" font-family="HelveticaNeue-Light" font-size="58.0" fill="#929292" transform="matrix(1.00, 0.00, -0.00, -1.00, 572.6, 726.0)">s</text><text xml:space="preserve" font-family="HelveticaNeue-Light" font-size="58.0" fill="#929292" transform="matrix(1.00, 0.00, -0.00, -1.00, 600.5, 726.0)">s</text><text xml:space="preserve" font-family="HelveticaNeue-Light" font-size="58.0" fill="#929292" transform="matrix(1.00, 0.00, -0.00, -1.00, 628.4, 726.0)">i</text><text xml:space="preserve" font-family="HelveticaNeue-Light" font-size="58.0" fill="#929292" transform="matrix(1.00, 0.00, -0.00, -1.00, 639.1, 726.0)">o</text><text xml:space="preserve" font-family="HelveticaNeue-Light" font-size="58.0" fill="#929292" transform="matrix(1.00, 0.00, -0.00, -1.00, 671.4, 726.0)">n</text><text xml:space="preserve" font-family="HelveticaNeue-Light" font-size="58.0" fill="#929292" transform="matrix(1.00, 0.00, -0.00, -1.00, 702.5, 726.0)">a</text><text xml:space="preserve" font-family="HelveticaNeue-Light" font-size="58.0" fill="#929292" transform="matrix(1.00, 0.00, -0.00, -1.00, 732.6, 726.0)">l</text><text xml:space="preserve" font-family="HelveticaNeue-Light" font-size="58.0" fill="#929292" transform="matrix(1.00, 0.00, -0.00, -1.00, 743.3, 726.0)"> </text><text xml:space="preserve" font-family="HelveticaNeue-Light" font-size="58.0" fill="#929292" transform="matrix(1.00, 0.00, -0.00, -1.00, 88.0, 656.0)">w</text><text xml:space="preserve" font-family="HelveticaNeue-Light" font-size="58.0" fill="#929292" transform="matrix(1.00, 0.00, -0.00, -1.00, 131.0, 656.0)">a</text><text xml:space="preserve" font-family="HelveticaNeue-Light" font-size="58.0" fill="#929292" transform="matrix(1.00, 0.00, -0.00, -1.00, 161.1, 656.0)">l</text><text xml:space="preserve" font-family="HelveticaNeue-Light" font-size="58.0" fill="#929292" transform="matrix(1.00, 0.00, -0.00, -1.00, 171.8, 656.0)">k</text><text xml:space="preserve" font-family="HelveticaNeue-Light" font-size="58.0" fill="#000000" transform="matrix(1.00, 0.00, -0.00, -1.00, 200.8, 656.0)"> </text><text xml:space="preserve" font-family="HelveticaNeue-Light" font-size="58.0" fill="#929292" transform="matrix(1.00, 0.00, -0.00, -1.00, 216.9, 656.0)">i</text><text xml:space="preserve" font-family="HelveticaNeue-Light" font-size="58.0" fill="#929292" transform="matrix(1.00, 0.00, -0.00, -1.00, 227.7, 656.0)">n</text><text xml:space="preserve" font-family="HelveticaNeue-Light" font-size="58.0" fill="#929292" transform="matrix(1.00, 0.00, -0.00, -1.00, 258.8, 656.0)">t</text><text xml:space="preserve" font-family="HelveticaNeue-Light" font-size="58.0" fill="#929292" transform="matrix(1.00, 0.00, -0.00, -1.00, 276.0, 656.0)">o</text><text xml:space="preserve" font-family="HelveticaNeue-Light" font-size="58.0" fill="#929292" transform="matrix(1.00, 0.00, -0.00, -1.00, 308.2, 656.0)"> </text><text xml:space="preserve" font-family="HelveticaNeue-Light" font-size="58.0" fill="#929292" transform="matrix(1.00, 0.00, -0.00, -1.00, 324.4, 656.0)">a</text><text xml:space="preserve" font-family="HelveticaNeue-Light" font-size="58.0" fill="#929292" transform="matrix(1.00, 0.00, -0.00, -1.00, 354.5, 656.0)"> </text><text xml:space="preserve" font-family="HelveticaNeue-Light" font-size="58.0" fill="#929292" transform="matrix(1.00, 0.00, -0.00, -1.00, 370.6, 656.0)">u</text><text xml:space="preserve" font-family="HelveticaNeue-Light" font-size="58.0" fill="#929292" transform="matrix(1.00, 0.00, -0.00, -1.00, 401.7, 656.0)">s</text><text xml:space="preserve" font-family="HelveticaNeue-Light" font-size="58.0" fill="#929292" transform="matrix(1.00, 0.00, -0.00, -1.00, 429.6, 656.0)">e</text><text xml:space="preserve" font-family="HelveticaNeue-Light" font-size="58.0" fill="#929292" transform="matrix(1.00, 0.00, -0.00, -1.00, 459.7, 656.0)">r</text><text xml:space="preserve" font-family="HelveticaNeue-Light" font-size="58.0" fill="#929292" transform="matrix(1.00, 0.00, -0.00, -1.00, 478.0, 656.0)"> </text><text xml:space="preserve" font-family="HelveticaNeue-Light" font-size="58.0" fill="#929292" transform="matrix(1.00, 0.00, -0.00, -1.00, 494.1, 656.0)">g</text><text xml:space="preserve" font-family="HelveticaNeue-Light" font-size="58.0" fill="#929292" transform="matrix(1.00, 0.00, -0.00, -1.00, 526.4, 656.0)">r</text><text xml:space="preserve" font-family="HelveticaNeue-Light" font-size="58.0" fill="#929292" transform="matrix(1.00, 0.00, -0.00, -1.00, 543.6, 656.0)">o</text><text xml:space="preserve" font-family="HelveticaNeue-Light" font-size="58.0" fill="#929292" transform="matrix(1.00, 0.00, -0.00, -1.00, 575.8, 656.0)">u</text><text xml:space="preserve" font-family="HelveticaNeue-Light" font-size="58.0" fill="#929292" transform="matrix(1.00, 0.00, -0.00, -1.00, 607.0, 656.0)">p</text><text xml:space="preserve" font-family="HelveticaNeue-Light" font-size="58.0" fill="#929292" transform="matrix(1.00, 0.00, -0.00, -1.00, 640.3, 656.0)"> </text><text xml:space="preserve" font-family="HelveticaNeue-Light" font-size="58.0" fill="#929292" transform="matrix(1.00, 0.00, -0.00, -1.00, 656.4, 656.0)">m</text><text xml:space="preserve" font-family="HelveticaNeue-Light" font-size="58.0" fill="#929292" transform="matrix(1.00, 0.00, -0.00, -1.00, 704.7, 656.0)">e</text><text xml:space="preserve" font-family="HelveticaNeue-Light" font-size="58.0" fill="#929292" transform="matrix(1.00, 0.00, -0.00, -1.00, 734.8, 656.0)">e</text><text xml:space="preserve" font-family="HelveticaNeue-Light" font-size="58.0" fill="#929292" transform="matrix(1.00, 0.00, -0.00, -1.00, 764.9, 656.0)">t</text><text xml:space="preserve" font-family="HelveticaNeue-Light" font-size="58.0" fill="#929292" transform="matrix(1.00, 0.00, -0.00, -1.00, 782.1, 656.0)">i</text><text xml:space="preserve" font-family="HelveticaNeue-Light" font-size="58.0" fill="#929292" transform="matrix(1.00, 0.00, -0.00, -1.00, 792.8, 656.0)">n</text><text xml:space="preserve" font-family="HelveticaNeue-Light" font-size="58.0" fill="#929292" transform="matrix(1.00, 0.00, -0.00, -1.00, 824.0, 656.0)">g</text><text xml:space="preserve" font-family="HelveticaNeue-Light" font-size="58.0" fill="#929292" transform="matrix(1.00, 0.00, -0.00, -1.00, 856.2, 656.0)"> </text><text xml:space="preserve" font-family="HelveticaNeue-Light" font-size="58.0" fill="#929292" transform="matrix(1.00, 0.00, -0.00, -1.00, 88.0, 586.0)">t</text><text xml:space="preserve" font-family="HelveticaNeue-Light" font-size="58.0" fill="#929292" transform="matrix(1.00, 0.00, -0.00, -1.00, 105.2, 586.0)">o</text><text xml:space="preserve" font-family="HelveticaNeue-Light" font-size="58.0" fill="#000000" transform="matrix(1.00, 0.00, -0.00, -1.00, 137.4, 586.0)"> </text><text xml:space="preserve" font-family="HelveticaNeue-Light" font-size="58.0" fill="#000000" transform="matrix(1.00, 0.00, -0.00, -1.00, 153.5, 586.0)">“</text><text xml:space="preserve" font-family="HelveticaNeue-Light" font-size="58.0" fill="#000000" transform="matrix(1.00, 0.00, -0.00, -1.00, 175.0, 586.0)">L</text><text xml:space="preserve" font-family="HelveticaNeue-Light" font-size="58.0" fill="#000000" transform="matrix(1.00, 0.00, -0.00, -1.00, 206.1, 586.0)">e</text><text xml:space="preserve" font-family="HelveticaNeue-Light" font-size="58.0" fill="#000000" transform="matrix(1.00, 0.00, -0.00, -1.00, 236.2, 586.0)">a</text><text xml:space="preserve" font-family="HelveticaNeue-Light" font-size="58.0" fill="#000000" transform="matrix(1.00, 0.00, -0.00, -1.00, 266.4, 586.0)">r</text><text xml:space="preserve" font-family="HelveticaNeue-Light" font-size="58.0" fill="#000000" transform="matrix(1.00, 0.00, -0.00, -1.00, 285.7, 586.0)">n</text><text xml:space="preserve" font-family="HelveticaNeue-Light" font-size="58.0" fill="#000000" transform="matrix(1.00, 0.00, -0.00, -1.00, 316.8, 586.0)"> </text><text xml:space="preserve" font-family="HelveticaNeue-Light" font-size="58.0" fill="#000000" transform="matrix(1.00, 0.00, -0.00, -1.00, 332.9, 586.0)">A</text><text xml:space="preserve" font-family="HelveticaNeue-Light" font-size="58.0" fill="#000000" transform="matrix(1.00, 0.00, -0.00, -1.00, 369.5, 586.0)">l</text><text xml:space="preserve" font-family="HelveticaNeue-Light" font-size="58.0" fill="#000000" transform="matrix(1.00, 0.00, -0.00, -1.00, 380.2, 586.0)">l</text><text xml:space="preserve" font-family="HelveticaNeue-Light" font-size="58.0" fill="#000000" transform="matrix(1.00, 0.00, -0.00, -1.00, 390.9, 586.0)"> </text><text xml:space="preserve" font-family="HelveticaNeue-Light" font-size="58.0" fill="#000000" transform="matrix(1.00, 0.00, -0.00, -1.00, 407.1, 586.0)">t</text><text xml:space="preserve" font-family="HelveticaNeue-Light" font-size="58.0" fill="#000000" transform="matrix(1.00, 0.00, -0.00, -1.00, 424.2, 586.0)">h</text><text xml:space="preserve" font-family="HelveticaNeue-Light" font-size="58.0" fill="#000000" transform="matrix(1.00, 0.00, -0.00, -1.00, 455.4, 586.0)">e</text><text xml:space="preserve" font-family="HelveticaNeue-Light" font-size="58.0" fill="#000000" transform="matrix(1.00, 0.00, -0.00, -1.00, 485.5, 586.0)"> </text><text xml:space="preserve" font-family="HelveticaNeue-Light" font-size="58.0" fill="#000000" transform="matrix(1.00, 0.00, -0.00, -1.00, 501.6, 586.0)">T</text><text xml:space="preserve" font-family="HelveticaNeue-Light" font-size="58.0" fill="#000000" transform="matrix(1.00, 0.00, -0.00, -1.00, 533.8, 586.0)">h</text><text xml:space="preserve" font-family="HelveticaNeue-Light" font-size="58.0" fill="#000000" transform="matrix(1.00, 0.00, -0.00, -1.00, 565.0, 586.0)">i</text><text xml:space="preserve" font-family="HelveticaNeue-Light" font-size="58.0" fill="#000000" transform="matrix(1.00, 0.00, -0.00, -1.00, 575.7, 586.0)">n</text><text xml:space="preserve" font-family="HelveticaNeue-Light" font-size="58.0" fill="#000000" transform="matrix(1.00, 0.00, -0.00, -1.00, 606.9, 586.0)">g</text><text xml:space="preserve" font-family="HelveticaNeue-Light" font-size="58.0" fill="#000000" transform="matrix(1.00, 0.00, -0.00, -1.00, 639.1, 586.0)">s</text><text xml:space="preserve" font-family="HelveticaNeue-Light" font-size="58.0" fill="#000000" transform="matrix(1.00, 0.00, -0.00, -1.00, 667.0, 586.0)">!</text><text xml:space="preserve" font-family="HelveticaNeue-Light" font-size="58.0" fill="#000000" transform="matrix(1.00, 0.00, -0.00, -1.00, 681.0, 586.0)">”</text></g></svg>