<?xml version="1.0" encoding="UTF-8" standalone="no"?><svg xmlns="http://www.w3.org/2000/svg" xmlns:xlink="http://www.w3.org/1999/xlink" clip-rule="evenodd" stroke-miterlimit="4.00" viewBox="0 0 1920 1080"><desc>SVG generated by Keynote</desc><defs></defs><g transform="matrix(1.00, 0.00, -0.00, -1.00, 0.0, 1080.0)"><path d="M 0.0 1080.0 L 1920.0 1080.0 L 1920.0 0.0 L 0.0 0.0 Z M 0.0 1080.0 " fill="#FEFFFE"></path><path d="M 0.0 0.0 L 1752.2 0.0 " fill="none" stroke="#9A9A9A" stroke-width="1.00" transform="matrix(1.00, 0.00, 0.00, -1.00, 84.0, 862.0)"></path><text xml:space="preserve" font-family="HelveticaNeue-Light" font-size="58.0" fill="#000000" transform="matrix(1.00, 0.00, -0.00, -1.00, 88.0, 904.0)">A</text><text xml:space="preserve" font-family="HelveticaNeue-Light" font-size="58.0" fill="#000000" transform="matrix(1.00, 0.00, -0.00, -1.00, 124.5, 904.0)">t</text><text xml:space="preserve" font-family="HelveticaNeue-Light" font-size="58.0" fill="#000000" transform="matrix(1.00, 0.00, -0.00, -1.00, 141.7, 904.0)">t</text><text xml:space="preserve" font-family="HelveticaNeue-Light" font-size="58.0" fill="#000000" transform="matrix(1.00, 0.00, -0.00, -1.00, 158.9, 904.0)">r</text><text xml:space="preserve" font-family="HelveticaNeue-Light" font-size="58.0" fill="#000000" transform="matrix(1.00, 0.00, -0.00, -1.00, 177.1, 904.0)">i</text><text xml:space="preserve" font-family="HelveticaNeue-Light" font-size="58.0" fill="#000000" transform="matrix(1.00, 0.00, -0.00, -1.00, 187.9, 904.0)">b</text><text xml:space="preserve" font-family="HelveticaNeue-Light" font-size="58.0" fill="#000000" transform="matrix(1.00, 0.00, -0.00, -1.00, 221.2, 904.0)">u</text><text xml:space="preserve" font-family="HelveticaNeue-Light" font-size="58.0" fill="#000000" transform="matrix(1.00, 0.00, -0.00, -1.00, 252.3, 904.0)">t</text><text xml:space="preserve" font-family="HelveticaNeue-Light" font-size="58.0" fill="#000000" transform="matrix(1.00, 0.00, -0.00, -1.00, 269.5, 904.0)">i</text><text xml:space="preserve" font-family="HelveticaNeue-Light" font-size="58.0" fill="#000000" transform="matrix(1.00, 0.00, -0.00, -1.00, 280.2, 904.0)">o</text><text xml:space="preserve" font-family="HelveticaNeue-Light" font-size="58.0" fill="#000000" transform="matrix(1.00, 0.00, -0.00, -1.00, 312.5, 904.0)">n</text><text xml:space="preserve" font-family="HelveticaNeue-Light" font-size="58.0" fill="#000000" transform="matrix(1.00, 0.00, -0.00, -1.00, 343.6, 904.0)">s</text><text xml:space="preserve" font-family="HelveticaNeue" font-size="37.5" fill="#747373" transform="matrix(1.00, 0.00, -0.00, -1.00, 88.5, 788.7)">•</text><text xml:space="preserve" font-family="HelveticaNeue-Light" font-size="50.0" fill="#747373" transform="matrix(1.00, 0.00, -0.00, -1.00, 138.0, 784.0)">A</text><text xml:space="preserve" font-family="HelveticaNeue-Light" font-size="50.0" fill="#747373" transform="matrix(1.00, 0.00, -0.00, -1.00, 169.5, 784.0)">l</text><text xml:space="preserve" font-family="HelveticaNeue-Light" font-size="50.0" fill="#747373" transform="matrix(1.00, 0.00, -0.00, -1.00, 178.8, 784.0)">l</text><text xml:space="preserve" font-family="HelveticaNeue-Light" font-size="50.0" fill="#747373" transform="matrix(1.00, 0.00, -0.00, -1.00, 188.0, 784.0)">i</text><text xml:space="preserve" font-family="HelveticaNeue-Light" font-size="50.0" fill="#747373" transform="matrix(1.00, 0.00, -0.00, -1.00, 197.2, 784.0)">e</text><text xml:space="preserve" font-family="HelveticaNeue-Light" font-size="50.0" fill="#747373" transform="matrix(1.00, 0.00, -0.00, -1.00, 223.2, 784.0)"> </text><text xml:space="preserve" font-family="HelveticaNeue-Light" font-size="50.0" fill="#747373" transform="matrix(1.00, 0.00, -0.00, -1.00, 237.1, 784.0)">B</text><text xml:space="preserve" font-family="HelveticaNeue-Light" font-size="50.0" fill="#747373" transform="matrix(1.00, 0.00, -0.00, -1.00, 270.5, 784.0)">r</text><text xml:space="preserve" font-family="HelveticaNeue-Light" font-size="50.0" fill="#747373" transform="matrix(1.00, 0.00, -0.00, -1.00, 285.3, 784.0)">o</text><text xml:space="preserve" font-family="HelveticaNeue-Light" font-size="50.0" fill="#747373" transform="matrix(1.00, 0.00, -0.00, -1.00, 313.1, 784.0)">s</text><text xml:space="preserve" font-family="HelveticaNeue-Light" font-size="50.0" fill="#747373" transform="matrix(1.00, 0.00, -0.00, -1.00, 337.2, 784.0)">h</text><text xml:space="preserve" font-family="HelveticaNeue-Light" font-size="50.0" fill="#747373" transform="matrix(1.00, 0.00, -0.00, -1.00, 364.0, 784.0)"> </text><text xml:space="preserve" font-family="HelveticaNeue-Light" font-size="50.0" fill="#747373" transform="matrix(1.00, 0.00, -0.00, -1.00, 377.9, 784.0)"> </text><text xml:space="preserve" font-family="HelveticaNeue-Light" font-size="50.0" fill="#747373" transform="matrix(1.00, 0.00, -0.00, -1.00, 391.8, 784.0)">h</text><text xml:space="preserve" font-family="HelveticaNeue-Light" font-size="50.0" fill="#747373" transform="matrix(1.00, 0.00, -0.00, -1.00, 418.7, 784.0)">t</text><text xml:space="preserve" font-family="HelveticaNeue-Light" font-size="50.0" fill="#747373" transform="matrix(1.00, 0.00, -0.00, -1.00, 433.5, 784.0)">t</text><text xml:space="preserve" font-family="HelveticaNeue-Light" font-size="50.0" fill="#747373" transform="matrix(1.00, 0.00, -0.00, -1.00, 448.3, 784.0)">p</text><text xml:space="preserve" font-family="HelveticaNeue-Light" font-size="50.0" fill="#747373" transform="matrix(1.00, 0.00, -0.00, -1.00, 477.0, 784.0)">:</text><text xml:space="preserve" font-family="HelveticaNeue-Light" font-size="50.0" fill="#747373" transform="matrix(1.00, 0.00, -0.00, -1.00, 490.9, 784.0)">/</text><text xml:space="preserve" font-family="HelveticaNeue-Light" font-size="50.0" fill="#747373" transform="matrix(1.00, 0.00, -0.00, -1.00, 507.5, 784.0)">/</text><text xml:space="preserve" font-family="HelveticaNeue-Light" font-size="50.0" fill="#747373" transform="matrix(1.00, 0.00, -0.00, -1.00, 524.1, 784.0)">h</text><text xml:space="preserve" font-family="HelveticaNeue-Light" font-size="50.0" fill="#747373" transform="matrix(1.00, 0.00, -0.00, -1.00, 551.0, 784.0)">y</text><text xml:space="preserve" font-family="HelveticaNeue-Light" font-size="50.0" fill="#747373" transform="matrix(1.00, 0.00, -0.00, -1.00, 574.1, 784.0)">p</text><text xml:space="preserve" font-family="HelveticaNeue-Light" font-size="50.0" fill="#747373" transform="matrix(1.00, 0.00, -0.00, -1.00, 602.8, 784.0)">e</text><text xml:space="preserve" font-family="HelveticaNeue-Light" font-size="50.0" fill="#747373" transform="matrix(1.00, 0.00, -0.00, -1.00, 628.8, 784.0)">r</text><text xml:space="preserve" font-family="HelveticaNeue-Light" font-size="50.0" fill="#747373" transform="matrix(1.00, 0.00, -0.00, -1.00, 644.5, 784.0)">b</text><text xml:space="preserve" font-family="HelveticaNeue-Light" font-size="50.0" fill="#747373" transform="matrix(1.00, 0.00, -0.00, -1.00, 673.2, 784.0)">o</text><text xml:space="preserve" font-family="HelveticaNeue-Light" font-size="50.0" fill="#747373" transform="matrix(1.00, 0.00, -0.00, -1.00, 701.0, 784.0)">l</text><text xml:space="preserve" font-family="HelveticaNeue-Light" font-size="50.0" fill="#747373" transform="matrix(1.00, 0.00, -0.00, -1.00, 710.3, 784.0)">e</text><text xml:space="preserve" font-family="HelveticaNeue-Light" font-size="50.0" fill="#747373" transform="matrix(1.00, 0.00, -0.00, -1.00, 736.2, 784.0)">a</text><text xml:space="preserve" font-family="HelveticaNeue-Light" font-size="50.0" fill="#747373" transform="matrix(1.00, 0.00, -0.00, -1.00, 762.2, 784.0)">n</text><text xml:space="preserve" font-family="HelveticaNeue-Light" font-size="50.0" fill="#747373" transform="matrix(1.00, 0.00, -0.00, -1.00, 789.1, 784.0)">d</text><text xml:space="preserve" font-family="HelveticaNeue-Light" font-size="50.0" fill="#747373" transform="matrix(1.00, 0.00, -0.00, -1.00, 817.8, 784.0)">a</text><text xml:space="preserve" font-family="HelveticaNeue-Light" font-size="50.0" fill="#747373" transform="matrix(1.00, 0.00, -0.00, -1.00, 843.7, 784.0)">h</text><text xml:space="preserve" font-family="HelveticaNeue-Light" font-size="50.0" fill="#747373" transform="matrix(1.00, 0.00, -0.00, -1.00, 870.6, 784.0)">a</text><text xml:space="preserve" font-family="HelveticaNeue-Light" font-size="50.0" fill="#747373" transform="matrix(1.00, 0.00, -0.00, -1.00, 896.5, 784.0)">l</text><text xml:space="preserve" font-family="HelveticaNeue-Light" font-size="50.0" fill="#747373" transform="matrix(1.00, 0.00, -0.00, -1.00, 905.8, 784.0)">f</text><text xml:space="preserve" font-family="HelveticaNeue-Light" font-size="50.0" fill="#747373" transform="matrix(1.00, 0.00, -0.00, -1.00, 918.7, 784.0)">.</text><text xml:space="preserve" font-family="HelveticaNeue-Light" font-size="50.0" fill="#747373" transform="matrix(1.00, 0.00, -0.00, -1.00, 932.6, 784.0)">b</text><text xml:space="preserve" font-family="HelveticaNeue-Light" font-size="50.0" fill="#747373" transform="matrix(1.00, 0.00, -0.00, -1.00, 961.3, 784.0)">l</text><text xml:space="preserve" font-family="HelveticaNeue-Light" font-size="50.0" fill="#747373" transform="matrix(1.00, 0.00, -0.00, -1.00, 970.6, 784.0)">o</text><text xml:space="preserve" font-family="HelveticaNeue-Light" font-size="50.0" fill="#747373" transform="matrix(1.00, 0.00, -0.00, -1.00, 998.4, 784.0)">g</text><text xml:space="preserve" font-family="HelveticaNeue-Light" font-size="50.0" fill="#747373" transform="matrix(1.00, 0.00, -0.00, -1.00, 1026.2, 784.0)">s</text><text xml:space="preserve" font-family="HelveticaNeue-Light" font-size="50.0" fill="#747373" transform="matrix(1.00, 0.00, -0.00, -1.00, 1050.2, 784.0)">p</text><text xml:space="preserve" font-family="HelveticaNeue-Light" font-size="50.0" fill="#747373" transform="matrix(1.00, 0.00, -0.00, -1.00, 1078.9, 784.0)">o</text><text xml:space="preserve" font-family="HelveticaNeue-Light" font-size="50.0" fill="#747373" transform="matrix(1.00, 0.00, -0.00, -1.00, 1106.7, 784.0)">t</text><text xml:space="preserve" font-family="HelveticaNeue-Light" font-size="50.0" fill="#747373" transform="matrix(1.00, 0.00, -0.00, -1.00, 1121.5, 784.0)">.</text><text xml:space="preserve" font-family="HelveticaNeue-Light" font-size="50.0" fill="#747373" transform="matrix(1.00, 0.00, -0.00, -1.00, 1135.4, 784.0)">c</text><text xml:space="preserve" font-family="HelveticaNeue-Light" font-size="50.0" fill="#747373" transform="matrix(1.00, 0.00, -0.00, -1.00, 1161.4, 784.0)">o</text><text xml:space="preserve" font-family="HelveticaNeue-Light" font-size="50.0" fill="#747373" transform="matrix(1.00, 0.00, -0.00, -1.00, 1189.2, 784.0)">m</text><text xml:space="preserve" font-family="HelveticaNeue-Light" font-size="50.0" fill="#747373" transform="matrix(1.00, 0.00, -0.00, -1.00, 1230.8, 784.0)">/</text><text xml:space="preserve" font-family="HelveticaNeue-Light" font-size="50.0" fill="#747373" transform="matrix(1.00, 0.00, -0.00, -1.00, 1247.5, 784.0)"> </text><text xml:space="preserve" font-family="HelveticaNeue-Light" font-size="50.0" fill="#747373" transform="matrix(1.00, 0.00, -0.00, -1.00, 1261.4, 784.0)">f</text><text xml:space="preserve" font-family="HelveticaNeue-Light" font-size="50.0" fill="#747373" transform="matrix(1.00, 0.00, -0.00, -1.00, 1274.3, 784.0)">o</text><text xml:space="preserve" font-family="HelveticaNeue-Light" font-size="50.0" fill="#747373" transform="matrix(1.00, 0.00, -0.00, -1.00, 1302.1, 784.0)">r</text><text xml:space="preserve" font-family="HelveticaNeue-Light" font-size="50.0" fill="#747373" transform="matrix(1.00, 0.00, -0.00, -1.00, 1317.9, 784.0)"> </text><text xml:space="preserve" font-family="HelveticaNeue-Light" font-size="50.0" fill="#747373" transform="matrix(1.00, 0.00, -0.00, -1.00, 1331.8, 784.0)">t</text><text xml:space="preserve" font-family="HelveticaNeue-Light" font-size="50.0" fill="#747373" transform="matrix(1.00, 0.00, -0.00, -1.00, 1346.6, 784.0)">h</text><text xml:space="preserve" font-family="HelveticaNeue-Light" font-size="50.0" fill="#747373" transform="matrix(1.00, 0.00, -0.00, -1.00, 1373.4, 784.0)">e</text><text xml:space="preserve" font-family="HelveticaNeue-Light" font-size="50.0" fill="#747373" transform="matrix(1.00, 0.00, -0.00, -1.00, 1399.4, 784.0)"> </text><text xml:space="preserve" font-family="HelveticaNeue-Light" font-size="50.0" fill="#747373" transform="matrix(1.00, 0.00, -0.00, -1.00, 1413.3, 784.0)">v</text><text xml:space="preserve" font-family="HelveticaNeue-Light" font-size="50.0" fill="#747373" transform="matrix(1.00, 0.00, -0.00, -1.00, 1436.4, 784.0)">e</text><text xml:space="preserve" font-family="HelveticaNeue-Light" font-size="50.0" fill="#747373" transform="matrix(1.00, 0.00, -0.00, -1.00, 1462.4, 784.0)">r</text><text xml:space="preserve" font-family="HelveticaNeue-Light" font-size="50.0" fill="#747373" transform="matrix(1.00, 0.00, -0.00, -1.00, 1478.1, 784.0)">y</text><text xml:space="preserve" font-family="HelveticaNeue-Light" font-size="50.0" fill="#747373" transform="matrix(1.00, 0.00, -0.00, -1.00, 1501.3, 784.0)"> </text><text xml:space="preserve" font-family="HelveticaNeue-Light" font-size="50.0" fill="#747373" transform="matrix(1.00, 0.00, -0.00, -1.00, 1515.2, 784.0)">c</text><text xml:space="preserve" font-family="HelveticaNeue-Light" font-size="50.0" fill="#747373" transform="matrix(1.00, 0.00, -0.00, -1.00, 1541.1, 784.0)">o</text><text xml:space="preserve" font-family="HelveticaNeue-Light" font-size="50.0" fill="#747373" transform="matrix(1.00, 0.00, -0.00, -1.00, 1568.9, 784.0)">o</text><text xml:space="preserve" font-family="HelveticaNeue-Light" font-size="50.0" fill="#747373" transform="matrix(1.00, 0.00, -0.00, -1.00, 1596.7, 784.0)">l</text><text xml:space="preserve" font-family="HelveticaNeue-Light" font-size="50.0" fill="#747373" transform="matrix(1.00, 0.00, -0.00, -1.00, 1606.0, 784.0)"> </text><text xml:space="preserve" font-family="HelveticaNeue-Light" font-size="50.0" fill="#747373" transform="matrix(1.00, 0.00, -0.00, -1.00, 1619.9, 784.0)">d</text><text xml:space="preserve" font-family="HelveticaNeue-Light" font-size="50.0" fill="#747373" transform="matrix(1.00, 0.00, -0.00, -1.00, 1648.6, 784.0)">r</text><text xml:space="preserve" font-family="HelveticaNeue-Light" font-size="50.0" fill="#747373" transform="matrix(1.00, 0.00, -0.00, -1.00, 1664.3, 784.0)">a</text><text xml:space="preserve" font-family="HelveticaNeue-Light" font-size="50.0" fill="#747373" transform="matrix(1.00, 0.00, -0.00, -1.00, 1690.3, 784.0)">w</text><text xml:space="preserve" font-family="HelveticaNeue-Light" font-size="50.0" fill="#747373" transform="matrix(1.00, 0.00, -0.00, -1.00, 1727.3, 784.0)">i</text><text xml:space="preserve" font-family="HelveticaNeue-Light" font-size="50.0" fill="#747373" transform="matrix(1.00, 0.00, -0.00, -1.00, 1736.6, 784.0)">n</text><text xml:space="preserve" font-family="HelveticaNeue-Light" font-size="50.0" fill="#747373" transform="matrix(1.00, 0.00, -0.00, -1.00, 1763.4, 784.0)">g</text><text xml:space="preserve" font-family="HelveticaNeue-Light" font-size="50.0" fill="#747373" transform="matrix(1.00, 0.00, -0.00, -1.00, 1791.2, 784.0)">s</text><text xml:space="preserve" font-family="HelveticaNeue-Light" font-size="50.0" fill="#747373" transform="matrix(1.00, 0.00, -0.00, -1.00, 1815.3, 784.0)"> </text><g><clipPath id="clip-66"><path d="M 391.3 776.8 L 1248.0 776.8 L 1248.0 781.3 L 391.3 781.3 Z M 391.3 776.8 "></path></clipPath><g clip-path="url(#clip-66)"><path d="M 307.8 56.9 L 1163.5 56.9 " fill="none" stroke="#747373" stroke-width="2.50" stroke-miterlimit="0.00" transform="matrix(1.00, 0.00, 0.00, -1.00, 84.5, 836.0)"></path></g></g><text xml:space="preserve" font-family="HelveticaNeue" font-size="37.5" fill="#747373" transform="matrix(1.00, 0.00, -0.00, -1.00, 88.5, 669.7)">•</text><text xml:space="preserve" font-family="HelveticaNeue-Light" font-size="50.0" fill="#747373" transform="matrix(1.00, 0.00, -0.00, -1.00, 138.0, 665.0)">M</text><text xml:space="preserve" font-family="HelveticaNeue-Light" font-size="50.0" fill="#747373" transform="matrix(1.00, 0.00, -0.00, -1.00, 179.1, 665.0)">i</text><text xml:space="preserve" font-family="HelveticaNeue-Light" font-size="50.0" fill="#747373" transform="matrix(1.00, 0.00, -0.00, -1.00, 188.3, 665.0)">n</text><text xml:space="preserve" font-family="HelveticaNeue-Light" font-size="50.0" fill="#747373" transform="matrix(1.00, 0.00, -0.00, -1.00, 215.2, 665.0)"> </text><text xml:space="preserve" font-family="HelveticaNeue-Light" font-size="50.0" fill="#747373" transform="matrix(1.00, 0.00, -0.00, -1.00, 229.1, 665.0)">R</text><text xml:space="preserve" font-family="HelveticaNeue-Light" font-size="50.0" fill="#747373" transform="matrix(1.00, 0.00, -0.00, -1.00, 262.4, 665.0)">a</text><text xml:space="preserve" font-family="HelveticaNeue-Light" font-size="50.0" fill="#747373" transform="matrix(1.00, 0.00, -0.00, -1.00, 288.4, 665.0)">g</text><text xml:space="preserve" font-family="HelveticaNeue-Light" font-size="50.0" fill="#747373" transform="matrix(1.00, 0.00, -0.00, -1.00, 316.2, 665.0)">a</text><text xml:space="preserve" font-family="HelveticaNeue-Light" font-size="50.0" fill="#747373" transform="matrix(1.00, 0.00, -0.00, -1.00, 342.1, 665.0)">n</text><text xml:space="preserve" font-family="HelveticaNeue-Light" font-size="50.0" fill="#747373" transform="matrix(1.00, 0.00, -0.00, -1.00, 369.0, 665.0)">-</text><text xml:space="preserve" font-family="HelveticaNeue-Light" font-size="50.0" fill="#747373" transform="matrix(1.00, 0.00, -0.00, -1.00, 387.5, 665.0)">K</text><text xml:space="preserve" font-family="HelveticaNeue-Light" font-size="50.0" fill="#747373" transform="matrix(1.00, 0.00, -0.00, -1.00, 419.9, 665.0)">e</text><text xml:space="preserve" font-family="HelveticaNeue-Light" font-size="50.0" fill="#747373" transform="matrix(1.00, 0.00, -0.00, -1.00, 445.8, 665.0)">l</text><text xml:space="preserve" font-family="HelveticaNeue-Light" font-size="50.0" fill="#747373" transform="matrix(1.00, 0.00, -0.00, -1.00, 455.1, 665.0)">l</text><text xml:space="preserve" font-family="HelveticaNeue-Light" font-size="50.0" fill="#747373" transform="matrix(1.00, 0.00, -0.00, -1.00, 464.3, 665.0)">e</text><text xml:space="preserve" font-family="HelveticaNeue-Light" font-size="50.0" fill="#747373" transform="matrix(1.00, 0.00, -0.00, -1.00, 490.2, 665.0)">y</text><text xml:space="preserve" font-family="HelveticaNeue-Light" font-size="50.0" fill="#747373" transform="matrix(1.00, 0.00, -0.00, -1.00, 508.8, 665.0)">,</text><text xml:space="preserve" font-family="HelveticaNeue-Light" font-size="50.0" fill="#747373" transform="matrix(1.00, 0.00, -0.00, -1.00, 522.7, 665.0)"> </text><text xml:space="preserve" font-family="HelveticaNeue-Light" font-size="50.0" fill="#747373" transform="matrix(1.00, 0.00, -0.00, -1.00, 536.6, 665.0)">T</text><text xml:space="preserve" font-family="HelveticaNeue-Light" font-size="50.0" fill="#747373" transform="matrix(1.00, 0.00, -0.00, -1.00, 564.4, 665.0)">h</text><text xml:space="preserve" font-family="HelveticaNeue-Light" font-size="50.0" fill="#747373" transform="matrix(1.00, 0.00, -0.00, -1.00, 591.2, 665.0)">o</text><text xml:space="preserve" font-family="HelveticaNeue-Light" font-size="50.0" fill="#747373" transform="matrix(1.00, 0.00, -0.00, -1.00, 619.0, 665.0)">m</text><text xml:space="preserve" font-family="HelveticaNeue-Light" font-size="50.0" fill="#747373" transform="matrix(1.00, 0.00, -0.00, -1.00, 660.7, 665.0)">a</text><text xml:space="preserve" font-family="HelveticaNeue-Light" font-size="50.0" fill="#747373" transform="matrix(1.00, 0.00, -0.00, -1.00, 686.6, 665.0)">s</text><text xml:space="preserve" font-family="HelveticaNeue-Light" font-size="50.0" fill="#747373" transform="matrix(1.00, 0.00, -0.00, -1.00, 710.7, 665.0)"> </text><text xml:space="preserve" font-family="HelveticaNeue-Light" font-size="50.0" fill="#747373" transform="matrix(1.00, 0.00, -0.00, -1.00, 724.6, 665.0)">K</text><text xml:space="preserve" font-family="HelveticaNeue-Light" font-size="50.0" fill="#747373" transform="matrix(1.00, 0.00, -0.00, -1.00, 757.0, 665.0)">l</text><text xml:space="preserve" font-family="HelveticaNeue-Light" font-size="50.0" fill="#747373" transform="matrix(1.00, 0.00, -0.00, -1.00, 766.2, 665.0)">u</text><text xml:space="preserve" font-family="HelveticaNeue-Light" font-size="50.0" fill="#747373" transform="matrix(1.00, 0.00, -0.00, -1.00, 793.1, 665.0)">y</text><text xml:space="preserve" font-family="HelveticaNeue-Light" font-size="50.0" fill="#747373" transform="matrix(1.00, 0.00, -0.00, -1.00, 816.2, 665.0)">v</text><text xml:space="preserve" font-family="HelveticaNeue-Light" font-size="50.0" fill="#747373" transform="matrix(1.00, 0.00, -0.00, -1.00, 839.4, 665.0)">e</text><text xml:space="preserve" font-family="HelveticaNeue-Light" font-size="50.0" fill="#747373" transform="matrix(1.00, 0.00, -0.00, -1.00, 865.3, 665.0)">r</text><text xml:space="preserve" font-family="HelveticaNeue-Light" font-size="50.0" fill="#747373" transform="matrix(1.00, 0.00, -0.00, -1.00, 876.5, 665.0)">,</text><text xml:space="preserve" font-family="HelveticaNeue-Light" font-size="50.0" fill="#747373" transform="matrix(1.00, 0.00, -0.00, -1.00, 890.4, 665.0)"> </text><text xml:space="preserve" font-family="HelveticaNeue-Light" font-size="50.0" fill="#747373" transform="matrix(1.00, 0.00, -0.00, -1.00, 904.3, 665.0)">K</text><text xml:space="preserve" font-family="HelveticaNeue-Light" font-size="50.0" fill="#747373" transform="matrix(1.00, 0.00, -0.00, -1.00, 936.7, 665.0)">y</text><text xml:space="preserve" font-family="HelveticaNeue-Light" font-size="50.0" fill="#747373" transform="matrix(1.00, 0.00, -0.00, -1.00, 959.8, 665.0)">l</text><text xml:space="preserve" font-family="HelveticaNeue-Light" font-size="50.0" fill="#747373" transform="matrix(1.00, 0.00, -0.00, -1.00, 969.1, 665.0)">e</text><text xml:space="preserve" font-family="HelveticaNeue-Light" font-size="50.0" fill="#747373" transform="matrix(1.00, 0.00, -0.00, -1.00, 995.0, 665.0)"> </text><text xml:space="preserve" font-family="HelveticaNeue-Light" font-size="50.0" fill="#747373" transform="matrix(1.00, 0.00, -0.00, -1.00, 1008.9, 665.0)">K</text><text xml:space="preserve" font-family="HelveticaNeue-Light" font-size="50.0" fill="#747373" transform="matrix(1.00, 0.00, -0.00, -1.00, 1041.3, 665.0)">e</text><text xml:space="preserve" font-family="HelveticaNeue-Light" font-size="50.0" fill="#747373" transform="matrix(1.00, 0.00, -0.00, -1.00, 1067.3, 665.0)">l</text><text xml:space="preserve" font-family="HelveticaNeue-Light" font-size="50.0" fill="#747373" transform="matrix(1.00, 0.00, -0.00, -1.00, 1076.5, 665.0)">l</text><text xml:space="preserve" font-family="HelveticaNeue-Light" font-size="50.0" fill="#747373" transform="matrix(1.00, 0.00, -0.00, -1.00, 1085.8, 665.0)">e</text><text xml:space="preserve" font-family="HelveticaNeue-Light" font-size="50.0" fill="#747373" transform="matrix(1.00, 0.00, -0.00, -1.00, 1111.8, 665.0)">y</text><text xml:space="preserve" font-family="HelveticaNeue-Light" font-size="50.0" fill="#747373" transform="matrix(1.00, 0.00, -0.00, -1.00, 1134.9, 665.0)"> </text><text xml:space="preserve" font-family="HelveticaNeue-Light" font-size="50.0" fill="#747373" transform="matrix(1.00, 0.00, -0.00, -1.00, 1148.8, 665.0)">f</text><text xml:space="preserve" font-family="HelveticaNeue-Light" font-size="50.0" fill="#747373" transform="matrix(1.00, 0.00, -0.00, -1.00, 1161.8, 665.0)">o</text><text xml:space="preserve" font-family="HelveticaNeue-Light" font-size="50.0" fill="#747373" transform="matrix(1.00, 0.00, -0.00, -1.00, 1189.5, 665.0)">r</text><text xml:space="preserve" font-family="HelveticaNeue-Light" font-size="50.0" fill="#747373" transform="matrix(1.00, 0.00, -0.00, -1.00, 1205.3, 665.0)"> </text><text xml:space="preserve" font-family="HelveticaNeue-Light" font-size="50.0" fill="#747373" transform="matrix(1.00, 0.00, -0.00, -1.00, 1219.2, 665.0)">t</text><text xml:space="preserve" font-family="HelveticaNeue-Light" font-size="50.0" fill="#747373" transform="matrix(1.00, 0.00, -0.00, -1.00, 1234.0, 665.0)">h</text><text xml:space="preserve" font-family="HelveticaNeue-Light" font-size="50.0" fill="#747373" transform="matrix(1.00, 0.00, -0.00, -1.00, 1260.8, 665.0)">e</text><text xml:space="preserve" font-family="HelveticaNeue-Light" font-size="50.0" fill="#747373" transform="matrix(1.00, 0.00, -0.00, -1.00, 1286.8, 665.0)"> </text><text xml:space="preserve" font-family="HelveticaNeue-Light" font-size="50.0" fill="#747373" transform="matrix(1.00, 0.00, -0.00, -1.00, 1300.7, 665.0)">J</text><text xml:space="preserve" font-family="HelveticaNeue-Light" font-size="50.0" fill="#747373" transform="matrix(1.00, 0.00, -0.00, -1.00, 1325.7, 665.0)">u</text><text xml:space="preserve" font-family="HelveticaNeue-Light" font-size="50.0" fill="#747373" transform="matrix(1.00, 0.00, -0.00, -1.00, 1352.5, 665.0)">p</text><text xml:space="preserve" font-family="HelveticaNeue-Light" font-size="50.0" fill="#747373" transform="matrix(1.00, 0.00, -0.00, -1.00, 1381.2, 665.0)">y</text><text xml:space="preserve" font-family="HelveticaNeue-Light" font-size="50.0" fill="#747373" transform="matrix(1.00, 0.00, -0.00, -1.00, 1404.4, 665.0)">t</text><text xml:space="preserve" font-family="HelveticaNeue-Light" font-size="50.0" fill="#747373" transform="matrix(1.00, 0.00, -0.00, -1.00, 1419.2, 665.0)">e</text><text xml:space="preserve" font-family="HelveticaNeue-Light" font-size="50.0" fill="#747373" transform="matrix(1.00, 0.00, -0.00, -1.00, 1445.2, 665.0)">r</text><text xml:space="preserve" font-family="HelveticaNeue-Light" font-size="50.0" fill="#747373" transform="matrix(1.00, 0.00, -0.00, -1.00, 1460.9, 665.0)">H</text><text xml:space="preserve" font-family="HelveticaNeue-Light" font-size="50.0" fill="#747373" transform="matrix(1.00, 0.00, -0.00, -1.00, 1496.1, 665.0)">u</text><text xml:space="preserve" font-family="HelveticaNeue-Light" font-size="50.0" fill="#747373" transform="matrix(1.00, 0.00, -0.00, -1.00, 1523.0, 665.0)">b</text><text xml:space="preserve" font-family="HelveticaNeue-Light" font-size="50.0" fill="#747373" transform="matrix(1.00, 0.00, -0.00, -1.00, 1551.7, 665.0)"> </text><text xml:space="preserve" font-family="HelveticaNeue-Light" font-size="50.0" fill="#747373" transform="matrix(1.00, 0.00, -0.00, -1.00, 1565.6, 665.0)">t</text><text xml:space="preserve" font-family="HelveticaNeue-Light" font-size="50.0" fill="#747373" transform="matrix(1.00, 0.00, -0.00, -1.00, 1580.4, 665.0)">a</text><text xml:space="preserve" font-family="HelveticaNeue-Light" font-size="50.0" fill="#747373" transform="matrix(1.00, 0.00, -0.00, -1.00, 1606.3, 665.0)">l</text><text xml:space="preserve" font-family="HelveticaNeue-Light" font-size="50.0" fill="#747373" transform="matrix(1.00, 0.00, -0.00, -1.00, 1615.6, 665.0)">k</text><text xml:space="preserve" font-family="HelveticaNeue-Light" font-size="50.0" fill="#747373" transform="matrix(1.00, 0.00, -0.00, -1.00, 1640.6, 665.0)"> </text><text xml:space="preserve" font-family="HelveticaNeue-Light" font-size="50.0" fill="#747373" transform="matrix(1.00, 0.00, -0.00, -1.00, 1654.5, 665.0)">a</text><text xml:space="preserve" font-family="HelveticaNeue-Light" font-size="50.0" fill="#747373" transform="matrix(1.00, 0.00, -0.00, -1.00, 1680.4, 665.0)">t</text><text xml:space="preserve" font-family="HelveticaNeue-Light" font-size="50.0" fill="#747373" transform="matrix(1.00, 0.00, -0.00, -1.00, 1695.2, 665.0)"> </text><text xml:space="preserve" font-family="HelveticaNeue-Light" font-size="50.0" fill="#747373" transform="matrix(1.00, 0.00, -0.00, -1.00, 138.0, 605.0)">P</text><text xml:space="preserve" font-family="HelveticaNeue-Light" font-size="50.0" fill="#747373" transform="matrix(1.00, 0.00, -0.00, -1.00, 169.5, 605.0)">y</text><text xml:space="preserve" font-family="HelveticaNeue-Light" font-size="50.0" fill="#747373" transform="matrix(1.00, 0.00, -0.00, -1.00, 192.7, 605.0)">D</text><text xml:space="preserve" font-family="HelveticaNeue-Light" font-size="50.0" fill="#747373" transform="matrix(1.00, 0.00, -0.00, -1.00, 226.9, 605.0)">a</text><text xml:space="preserve" font-family="HelveticaNeue-Light" font-size="50.0" fill="#747373" transform="matrix(1.00, 0.00, -0.00, -1.00, 252.9, 605.0)">t</text><text xml:space="preserve" font-family="HelveticaNeue-Light" font-size="50.0" fill="#747373" transform="matrix(1.00, 0.00, -0.00, -1.00, 267.6, 605.0)">a</text><text xml:space="preserve" font-family="HelveticaNeue-Light" font-size="50.0" fill="#747373" transform="matrix(1.00, 0.00, -0.00, -1.00, 293.6, 605.0)"> </text><text xml:space="preserve" font-family="HelveticaNeue-Light" font-size="50.0" fill="#747373" transform="matrix(1.00, 0.00, -0.00, -1.00, 307.5, 605.0)">L</text><text xml:space="preserve" font-family="HelveticaNeue-Light" font-size="50.0" fill="#747373" transform="matrix(1.00, 0.00, -0.00, -1.00, 334.4, 605.0)">o</text><text xml:space="preserve" font-family="HelveticaNeue-Light" font-size="50.0" fill="#747373" transform="matrix(1.00, 0.00, -0.00, -1.00, 362.2, 605.0)">n</text><text xml:space="preserve" font-family="HelveticaNeue-Light" font-size="50.0" fill="#747373" transform="matrix(1.00, 0.00, -0.00, -1.00, 389.0, 605.0)">d</text><text xml:space="preserve" font-family="HelveticaNeue-Light" font-size="50.0" fill="#747373" transform="matrix(1.00, 0.00, -0.00, -1.00, 417.7, 605.0)">o</text><text xml:space="preserve" font-family="HelveticaNeue-Light" font-size="50.0" fill="#747373" transform="matrix(1.00, 0.00, -0.00, -1.00, 445.5, 605.0)">n</text><text xml:space="preserve" font-family="HelveticaNeue-Light" font-size="50.0" fill="#747373" transform="matrix(1.00, 0.00, -0.00, -1.00, 472.4, 605.0)">.</text><text xml:space="preserve" font-family="HelveticaNeue-Light" font-size="50.0" fill="#747373" transform="matrix(1.00, 0.00, -0.00, -1.00, 486.3, 605.0)"> </text><text xml:space="preserve" font-family="HelveticaNeue-Light" font-size="50.0" fill="#747373" transform="matrix(1.00, 0.00, -0.00, -1.00, 500.2, 605.0)">A</text><text xml:space="preserve" font-family="HelveticaNeue-Light" font-size="50.0" fill="#747373" transform="matrix(1.00, 0.00, -0.00, -1.00, 531.7, 605.0)">r</text><text xml:space="preserve" font-family="HelveticaNeue-Light" font-size="50.0" fill="#747373" transform="matrix(1.00, 0.00, -0.00, -1.00, 546.5, 605.0)">c</text><text xml:space="preserve" font-family="HelveticaNeue-Light" font-size="50.0" fill="#747373" transform="matrix(1.00, 0.00, -0.00, -1.00, 572.5, 605.0)">h</text><text xml:space="preserve" font-family="HelveticaNeue-Light" font-size="50.0" fill="#747373" transform="matrix(1.00, 0.00, -0.00, -1.00, 599.3, 605.0)">i</text><text xml:space="preserve" font-family="HelveticaNeue-Light" font-size="50.0" fill="#747373" transform="matrix(1.00, 0.00, -0.00, -1.00, 608.6, 605.0)">t</text><text xml:space="preserve" font-family="HelveticaNeue-Light" font-size="50.0" fill="#747373" transform="matrix(1.00, 0.00, -0.00, -1.00, 623.4, 605.0)">e</text><text xml:space="preserve" font-family="HelveticaNeue-Light" font-size="50.0" fill="#747373" transform="matrix(1.00, 0.00, -0.00, -1.00, 649.3, 605.0)">c</text><text xml:space="preserve" font-family="HelveticaNeue-Light" font-size="50.0" fill="#747373" transform="matrix(1.00, 0.00, -0.00, -1.00, 675.3, 605.0)">t</text><text xml:space="preserve" font-family="HelveticaNeue-Light" font-size="50.0" fill="#747373" transform="matrix(1.00, 0.00, -0.00, -1.00, 690.1, 605.0)">u</text><text xml:space="preserve" font-family="HelveticaNeue-Light" font-size="50.0" fill="#747373" transform="matrix(1.00, 0.00, -0.00, -1.00, 716.9, 605.0)">r</text><text xml:space="preserve" font-family="HelveticaNeue-Light" font-size="50.0" fill="#747373" transform="matrix(1.00, 0.00, -0.00, -1.00, 731.8, 605.0)">e</text><text xml:space="preserve" font-family="HelveticaNeue-Light" font-size="50.0" fill="#747373" transform="matrix(1.00, 0.00, -0.00, -1.00, 757.7, 605.0)"> </text><text xml:space="preserve" font-family="HelveticaNeue-Light" font-size="50.0" fill="#747373" transform="matrix(1.00, 0.00, -0.00, -1.00, 771.6, 605.0)">G</text><text xml:space="preserve" font-family="HelveticaNeue-Light" font-size="50.0" fill="#747373" transform="matrix(1.00, 0.00, -0.00, -1.00, 808.7, 605.0)">r</text><text xml:space="preserve" font-family="HelveticaNeue-Light" font-size="50.0" fill="#747373" transform="matrix(1.00, 0.00, -0.00, -1.00, 824.4, 605.0)">a</text><text xml:space="preserve" font-family="HelveticaNeue-Light" font-size="50.0" fill="#747373" transform="matrix(1.00, 0.00, -0.00, -1.00, 850.4, 605.0)">p</text><text xml:space="preserve" font-family="HelveticaNeue-Light" font-size="50.0" fill="#747373" transform="matrix(1.00, 0.00, -0.00, -1.00, 879.1, 605.0)">h</text><text xml:space="preserve" font-family="HelveticaNeue-Light" font-size="50.0" fill="#747373" transform="matrix(1.00, 0.00, -0.00, -1.00, 905.9, 605.0)">i</text><text xml:space="preserve" font-family="HelveticaNeue-Light" font-size="50.0" fill="#747373" transform="matrix(1.00, 0.00, -0.00, -1.00, 915.2, 605.0)">c</text><text xml:space="preserve" font-family="HelveticaNeue-Light" font-size="50.0" fill="#747373" transform="matrix(1.00, 0.00, -0.00, -1.00, 941.1, 605.0)">s</text><text xml:space="preserve" font-family="HelveticaNeue-Light" font-size="50.0" fill="#747373" transform="matrix(1.00, 0.00, -0.00, -1.00, 965.2, 605.0)">.</text><text xml:space="preserve" font-family="HelveticaNeue-Light" font-size="50.0" fill="#747373" transform="matrix(1.00, 0.00, -0.00, -1.00, 979.1, 605.0)"> </text><text xml:space="preserve" font-family="HelveticaNeue" font-size="37.5" fill="#747373" transform="matrix(1.00, 0.00, -0.00, -1.00, 88.5, 490.7)">•</text><text xml:space="preserve" font-family="HelveticaNeue-Light" font-size="50.0" fill="#747373" transform="matrix(1.00, 0.00, -0.00, -1.00, 138.0, 486.0)">P</text><text xml:space="preserve" font-family="HelveticaNeue-Light" font-size="50.0" fill="#747373" transform="matrix(1.00, 0.00, -0.00, -1.00, 169.5, 486.0)">r</text><text xml:space="preserve" font-family="HelveticaNeue-Light" font-size="50.0" fill="#747373" transform="matrix(1.00, 0.00, -0.00, -1.00, 184.3, 486.0)">o</text><text xml:space="preserve" font-family="HelveticaNeue-Light" font-size="50.0" fill="#747373" transform="matrix(1.00, 0.00, -0.00, -1.00, 212.2, 486.0)">j</text><text xml:space="preserve" font-family="HelveticaNeue-Light" font-size="50.0" fill="#747373" transform="matrix(1.00, 0.00, -0.00, -1.00, 221.4, 486.0)">e</text><text xml:space="preserve" font-family="HelveticaNeue-Light" font-size="50.0" fill="#747373" transform="matrix(1.00, 0.00, -0.00, -1.00, 247.4, 486.0)">c</text><text xml:space="preserve" font-family="HelveticaNeue-Light" font-size="50.0" fill="#747373" transform="matrix(1.00, 0.00, -0.00, -1.00, 273.3, 486.0)">t</text><text xml:space="preserve" font-family="HelveticaNeue-Light" font-size="50.0" fill="#747373" transform="matrix(1.00, 0.00, -0.00, -1.00, 288.1, 486.0)"> </text><text xml:space="preserve" font-family="HelveticaNeue-Light" font-size="50.0" fill="#747373" transform="matrix(1.00, 0.00, -0.00, -1.00, 302.0, 486.0)">J</text><text xml:space="preserve" font-family="HelveticaNeue-Light" font-size="50.0" fill="#747373" transform="matrix(1.00, 0.00, -0.00, -1.00, 327.0, 486.0)">u</text><text xml:space="preserve" font-family="HelveticaNeue-Light" font-size="50.0" fill="#747373" transform="matrix(1.00, 0.00, -0.00, -1.00, 353.9, 486.0)">p</text><text xml:space="preserve" font-family="HelveticaNeue-Light" font-size="50.0" fill="#747373" transform="matrix(1.00, 0.00, -0.00, -1.00, 382.6, 486.0)">y</text><text xml:space="preserve" font-family="HelveticaNeue-Light" font-size="50.0" fill="#747373" transform="matrix(1.00, 0.00, -0.00, -1.00, 405.7, 486.0)">t</text><text xml:space="preserve" font-family="HelveticaNeue-Light" font-size="50.0" fill="#747373" transform="matrix(1.00, 0.00, -0.00, -1.00, 420.5, 486.0)">e</text><text xml:space="preserve" font-family="HelveticaNeue-Light" font-size="50.0" fill="#747373" transform="matrix(1.00, 0.00, -0.00, -1.00, 446.4, 486.0)">r</text><text xml:space="preserve" font-family="HelveticaNeue-Light" font-size="50.0" fill="#747373" transform="matrix(1.00, 0.00, -0.00, -1.00, 462.2, 486.0)"> </text><text xml:space="preserve" font-family="HelveticaNeue-Light" font-size="50.0" fill="#747373" transform="matrix(1.00, 0.00, -0.00, -1.00, 476.1, 486.0)">-</text><text xml:space="preserve" font-family="HelveticaNeue-Light" font-size="50.0" fill="#747373" transform="matrix(1.00, 0.00, -0.00, -1.00, 494.6, 486.0)"> </text><text xml:space="preserve" font-family="HelveticaNeue-Light" font-size="50.0" fill="#747373" transform="matrix(1.00, 0.00, -0.00, -1.00, 508.5, 486.0)">l</text><text xml:space="preserve" font-family="HelveticaNeue-Light" font-size="50.0" fill="#747373" transform="matrix(1.00, 0.00, -0.00, -1.00, 517.8, 486.0)">o</text><text xml:space="preserve" font-family="HelveticaNeue-Light" font-size="50.0" fill="#747373" transform="matrix(1.00, 0.00, -0.00, -1.00, 545.5, 486.0)">g</text><text xml:space="preserve" font-family="HelveticaNeue-Light" font-size="50.0" fill="#747373" transform="matrix(1.00, 0.00, -0.00, -1.00, 573.3, 486.0)">o</text><text xml:space="preserve" font-family="HelveticaNeue-Light" font-size="50.0" fill="#747373" transform="matrix(1.00, 0.00, -0.00, -1.00, 601.1, 486.0)">s</text><text xml:space="preserve" font-family="HelveticaNeue-Light" font-size="50.0" fill="#747373" transform="matrix(1.00, 0.00, -0.00, -1.00, 625.2, 486.0)">.</text><text xml:space="preserve" font-family="HelveticaNeue-Light" font-size="50.0" fill="#747373" transform="matrix(1.00, 0.00, -0.00, -1.00, 639.1, 486.0)"> </text><text xml:space="preserve" font-family="HelveticaNeue-Light" font-size="50.0" fill="#747373" transform="matrix(1.00, 0.00, -0.00, -1.00, 653.0, 486.0)"> </text><text xml:space="preserve" font-family="HelveticaNeue" font-size="37.5" fill="#747373" transform="matrix(1.00, 0.00, -0.00, -1.00, 88.5, 371.7)">•</text><text xml:space="preserve" font-family="HelveticaNeue-Light" font-size="50.0" fill="#747373" transform="matrix(1.00, 0.00, -0.00, -1.00, 138.0, 367.0)">P</text><text xml:space="preserve" font-family="HelveticaNeue-Light" font-size="50.0" fill="#747373" transform="matrix(1.00, 0.00, -0.00, -1.00, 169.5, 367.0)">y</text><text xml:space="preserve" font-family="HelveticaNeue-Light" font-size="50.0" fill="#747373" transform="matrix(1.00, 0.00, -0.00, -1.00, 192.7, 367.0)">t</text><text xml:space="preserve" font-family="HelveticaNeue-Light" font-size="50.0" fill="#747373" transform="matrix(1.00, 0.00, -0.00, -1.00, 207.4, 367.0)">h</text><text xml:space="preserve" font-family="HelveticaNeue-Light" font-size="50.0" fill="#747373" transform="matrix(1.00, 0.00, -0.00, -1.00, 234.3, 367.0)">o</text><text xml:space="preserve" font-family="HelveticaNeue-Light" font-size="50.0" fill="#747373" transform="matrix(1.00, 0.00, -0.00, -1.00, 262.1, 367.0)">n</text><text xml:space="preserve" font-family="HelveticaNeue-Light" font-size="50.0" fill="#747373" transform="matrix(1.00, 0.00, -0.00, -1.00, 289.0, 367.0)"> </text><text xml:space="preserve" font-family="HelveticaNeue-Light" font-size="50.0" fill="#747373" transform="matrix(1.00, 0.00, -0.00, -1.00, 302.9, 367.0)">S</text><text xml:space="preserve" font-family="HelveticaNeue-Light" font-size="50.0" fill="#747373" transform="matrix(1.00, 0.00, -0.00, -1.00, 334.4, 367.0)">o</text><text xml:space="preserve" font-family="HelveticaNeue-Light" font-size="50.0" fill="#747373" transform="matrix(1.00, 0.00, -0.00, -1.00, 362.2, 367.0)">f</text><text xml:space="preserve" font-family="HelveticaNeue-Light" font-size="50.0" fill="#747373" transform="matrix(1.00, 0.00, -0.00, -1.00, 375.1, 367.0)">t</text><text xml:space="preserve" font-family="HelveticaNeue-Light" font-size="50.0" fill="#747373" transform="matrix(1.00, 0.00, -0.00, -1.00, 389.9, 367.0)">w</text><text xml:space="preserve" font-family="HelveticaNeue-Light" font-size="50.0" fill="#747373" transform="matrix(1.00, 0.00, -0.00, -1.00, 427.0, 367.0)">a</text><text xml:space="preserve" font-family="HelveticaNeue-Light" font-size="50.0" fill="#747373" transform="matrix(1.00, 0.00, -0.00, -1.00, 452.9, 367.0)">r</text><text xml:space="preserve" font-family="HelveticaNeue-Light" font-size="50.0" fill="#747373" transform="matrix(1.00, 0.00, -0.00, -1.00, 467.8, 367.0)">e</text><text xml:space="preserve" font-family="HelveticaNeue-Light" font-size="50.0" fill="#747373" transform="matrix(1.00, 0.00, -0.00, -1.00, 493.7, 367.0)"> </text><text xml:space="preserve" font-family="HelveticaNeue-Light" font-size="50.0" fill="#747373" transform="matrix(1.00, 0.00, -0.00, -1.00, 507.6, 367.0)">F</text><text xml:space="preserve" font-family="HelveticaNeue-Light" font-size="50.0" fill="#747373" transform="matrix(1.00, 0.00, -0.00, -1.00, 534.5, 367.0)">o</text><text xml:space="preserve" font-family="HelveticaNeue-Light" font-size="50.0" fill="#747373" transform="matrix(1.00, 0.00, -0.00, -1.00, 562.2, 367.0)">u</text><text xml:space="preserve" font-family="HelveticaNeue-Light" font-size="50.0" fill="#747373" transform="matrix(1.00, 0.00, -0.00, -1.00, 589.1, 367.0)">n</text><text xml:space="preserve" font-family="HelveticaNeue-Light" font-size="50.0" fill="#747373" transform="matrix(1.00, 0.00, -0.00, -1.00, 616.0, 367.0)">d</text><text xml:space="preserve" font-family="HelveticaNeue-Light" font-size="50.0" fill="#747373" transform="matrix(1.00, 0.00, -0.00, -1.00, 644.7, 367.0)">a</text><text xml:space="preserve" font-family="HelveticaNeue-Light" font-size="50.0" fill="#747373" transform="matrix(1.00, 0.00, -0.00, -1.00, 670.6, 367.0)">t</text><text xml:space="preserve" font-family="HelveticaNeue-Light" font-size="50.0" fill="#747373" transform="matrix(1.00, 0.00, -0.00, -1.00, 685.4, 367.0)">i</text><text xml:space="preserve" font-family="HelveticaNeue-Light" font-size="50.0" fill="#747373" transform="matrix(1.00, 0.00, -0.00, -1.00, 694.7, 367.0)">o</text><text xml:space="preserve" font-family="HelveticaNeue-Light" font-size="50.0" fill="#747373" transform="matrix(1.00, 0.00, -0.00, -1.00, 722.5, 367.0)">n</text><text xml:space="preserve" font-family="HelveticaNeue-Light" font-size="50.0" fill="#747373" transform="matrix(1.00, 0.00, -0.00, -1.00, 749.3, 367.0)"> </text><text xml:space="preserve" font-family="HelveticaNeue-Light" font-size="50.0" fill="#747373" transform="matrix(1.00, 0.00, -0.00, -1.00, 763.2, 367.0)">l</text><text xml:space="preserve" font-family="HelveticaNeue-Light" font-size="50.0" fill="#747373" transform="matrix(1.00, 0.00, -0.00, -1.00, 772.5, 367.0)">o</text><text xml:space="preserve" font-family="HelveticaNeue-Light" font-size="50.0" fill="#747373" transform="matrix(1.00, 0.00, -0.00, -1.00, 800.2, 367.0)">g</text><text xml:space="preserve" font-family="HelveticaNeue-Light" font-size="50.0" fill="#747373" transform="matrix(1.00, 0.00, -0.00, -1.00, 828.0, 367.0)">o</text><text xml:space="preserve" font-family="HelveticaNeue-Light" font-size="50.0" fill="#747373" transform="matrix(1.00, 0.00, -0.00, -1.00, 855.8, 367.0)">.</text><g><clipPath id="clip-67"><path d="M 1552.0 318.0 L 1752.0 318.0 L 1752.0 118.0 L 1552.0 118.0 Z M 1551.7 318.0 "></path></clipPath><g clip-path="url(#clip-67)"><image xlink:href="../../587B88A6-D473-4CF8-B7F2-E2306C3B7822/assets/12A8F41B954E91309DEB717F1AC6BEA6.png" width="200.00" height="200.00" transform="matrix(1.00, 0.00, -0.00, -1.00, 1552.0, 318.0)"></image></g></g></g></svg>